<svg xmlns="http://www.w3.org/2000/svg" width="71.672" height="82.694" viewBox="0 0 71.672 82.694"><defs><style>.a{fill:#154282;}</style></defs><path class="a" d="M86.025,46.108c-3.311-4.808-5-8.416-5.45-14.42a27.445,27.445,0,0,1,1.549-9.667,34.132,34.132,0,0,0-3.906,2.665c-8.032,6.638-10.13,13.282-10.376,14.141l-.026.1.026-.1s6.277-24.558-11.2-35.994C55.194,1.884,51.849,0,51.849,0s8.676,21.27-6.858,33.889c-3.057-12.479-19.2-12.632-19.2-12.632s1.24,4.348,1.44,5.376c2.616,13.562-5.4,17.853-7.03,30.673.186-1.471.112-.886,0,.008a.055.055,0,0,0,0,.01v0s0,.007,0,.011c-1.271,10.064,3.525,17.859,10.894,23.118a21.771,21.771,0,0,1,3.824-10.017c2.29-3.326,3.459-5.822,3.769-9.975a19.034,19.034,0,0,0-1.071-6.688,23.944,23.944,0,0,1,2.7,1.845,22.745,22.745,0,0,1,6.928,9.052l.063-.037c-.77-3.475-2.94-17.017,7.932-24.132,1-.655,3.317-1.959,3.317-1.959S52.4,52,65.956,62.935a15.023,15.023,0,0,1,4.6-11.792,12.7,12.7,0,0,1,4.864-2.559s-.859,3.01-1,3.72c-1.81,9.384,6.068,16.681,4.385,25.569a24.909,24.909,0,0,1-1.4,4.821h.753a27.6,27.6,0,0,0,10.244-8.716C94.185,65.315,91.588,54.188,86.025,46.108Z" transform="translate(-19.995)"/></svg>