<svg xmlns="http://www.w3.org/2000/svg" width="90.789" height="90.789" viewBox="0 0 90.789 90.789"><defs><style>.a{fill:#154282;}</style></defs><path class="a" d="M51.719,87.8,87.8,123.887,123.89,87.8,87.8,51.714ZM95.838,65.632h0a1.646,1.646,0,0,1-.288,1.939c-.019.019-2.425,2.507-1.337,4.683a14.67,14.67,0,0,1,.7,1.665,11.912,11.912,0,0,1,10.179.482,1.645,1.645,0,0,1-.17,2.925,8.8,8.8,0,0,0-3.459,2.922,12.577,12.577,0,0,1,8.42.059,1.646,1.646,0,0,1-.685,3.142c.076,0-2.053.485-3.326,6.65-1.355,6.552-4.821,9.283-6.6,10.283a11.513,11.513,0,0,1-22.931-.013c-1.775-1.025-5.251-3.836-6.6-10.6-1.067-5.335-2.859-6.8-3.459-6.913a1.431,1.431,0,0,1-1.641-1.131A1.782,1.782,0,0,1,65.7,79.734a12.535,12.535,0,0,1,9.525.315,22.606,22.606,0,0,0-.506-8.186A1.646,1.646,0,0,1,76.4,69.7a11.408,11.408,0,0,1,6.347,3.1A17.265,17.265,0,0,1,94.066,64.8,1.636,1.636,0,0,1,95.838,65.632Z" transform="translate(-42.41 -42.406)"/><circle class="a" cx="8.228" cy="8.228" r="8.228" transform="translate(37.167 48.685)"/><path class="a" d="M45.394,0,0,45.394,45.394,90.789,90.789,45.394Zm1.163,84.971a1.645,1.645,0,0,1-2.327,0L5.818,46.558a1.645,1.645,0,0,1,0-2.327L44.231,5.817a1.694,1.694,0,0,1,2.327,0L84.97,44.231a1.645,1.645,0,0,1,0,2.327Z"/><path class="a" d="M171.113,157.93a1.646,1.646,0,1,1-2.933,1.495,15.478,15.478,0,0,0-1.264-2.067,9.9,9.9,0,0,0-3.306-2.851,34.88,34.88,0,0,1-.1,7.9,23.26,23.26,0,0,1,2.226,1.565,1.646,1.646,0,0,1-2.055,2.571,14.477,14.477,0,0,0-8.145-3.532,18.643,18.643,0,0,1,2.558,6.86,13.337,13.337,0,0,0,3.679,7.406,11.5,11.5,0,0,1,22.336.042,12.706,12.706,0,0,0,3.67-7.138,18.092,18.092,0,0,1,2.488-6.557,12.75,12.75,0,0,0-4.247,1.1c.008.028.009.055.017.083a1.646,1.646,0,0,1-1.133,2.033,1.625,1.625,0,0,1-.451.063,1.647,1.647,0,0,1-1.582-1.2,8.332,8.332,0,0,1-.285-1.684,1.567,1.567,0,0,1-.011-.351,8.554,8.554,0,0,1,3.067-6.58,8.246,8.246,0,0,0-4.922.921,6.62,6.62,0,0,1-1.685,5.116,1.645,1.645,0,0,1-2.327-2.327c.946-.947,1.144-3.425-.309-6.328a6.058,6.058,0,0,1-.436-4.289,14.951,14.951,0,0,0-5.836,6.064A18.992,18.992,0,0,1,171.113,157.93Z" transform="translate(-127.544 -123.157)"/></svg>