<svg xmlns="http://www.w3.org/2000/svg" width="77.667" height="69.627" viewBox="0 0 77.667 69.627"><defs><style>.a{fill:#154282;}</style></defs><path class="a" d="M77.849,60.541,44.987,3.015a5.914,5.914,0,0,0-10.31,0L1.814,60.541A6.052,6.052,0,0,0,6.97,69.627H72.693a6.052,6.052,0,0,0,5.156-9.086ZM57.287,55.635a1.339,1.339,0,0,1,0,1.893L51.605,63.21a1.339,1.339,0,0,1-1.893,0l-9.88-9.88-9.88,9.88a1.339,1.339,0,0,1-1.893,0l-5.681-5.681a1.339,1.339,0,0,1,0-1.893l9.88-9.879-9.88-9.88a1.339,1.339,0,0,1,0-1.893L28.058,28.3a1.339,1.339,0,0,1,1.893,0l9.88,9.88,9.88-9.88a1.339,1.339,0,0,1,1.893,0l5.681,5.681a1.339,1.339,0,0,1,0,1.893l-9.88,9.88Z" transform="translate(-0.998 0)"/></svg>