<svg xmlns="http://www.w3.org/2000/svg" width="82.391" height="82.391" viewBox="0 0 82.391 82.391"><defs><style>.a{fill:#154282;}</style></defs><g transform="translate(0.001 0)"><g transform="translate(-0.001 0)"><path class="a" d="M381.356,22.563l4.747-4.747a6.437,6.437,0,1,0,4.12-10.947,6.426,6.426,0,1,0-10.947,4.12l-4.222,4.222A30,30,0,0,1,381.356,22.563Z" transform="translate(-314.701 0)"/><path class="a" d="M19.471,367.608a13.739,13.739,0,0,1-2.792-1.682l-5.691,5.691h0a6.437,6.437,0,1,0-4.12,10.947,6.426,6.426,0,1,0,10.947-4.12h0l3.27-3.27a11.991,11.991,0,0,1-1.614-6.018Z" transform="translate(0.001 -307.042)"/><path class="a" d="M22.037,15.21l-4.222-4.222A6.437,6.437,0,1,0,6.869,6.869a6.426,6.426,0,1,0,4.12,10.947l4.747,4.747a29.989,29.989,0,0,1,6.3-7.352Z" transform="translate(0 0)"/><path class="a" d="M400.17,371.617a6.437,6.437,0,0,0-9.1,0h0l-5.691-5.691a13.755,13.755,0,0,1-2.792,1.682v1.548a11.991,11.991,0,0,1-1.614,6.018l3.27,3.27h0a6.437,6.437,0,1,0,10.947,4.12,6.412,6.412,0,0,0,4.983-10.947Z" transform="translate(-319.665 -307.042)"/></g><circle class="a" cx="3" cy="3" r="3" transform="translate(49.651 34.739)"/><path class="a" d="M125.942,81A24.971,24.971,0,0,0,101,105.942v10.125a8.808,8.808,0,0,0,5.563,8.217l2.482.993v4.8a7.25,7.25,0,0,0,7.241,7.241h.8v-8.046a2.414,2.414,0,0,1,4.828,0v8.046h8.046v-8.046a2.414,2.414,0,0,1,4.828,0v8.046h.8a7.25,7.25,0,0,0,7.241-7.241v-4.8l2.482-.993a8.808,8.808,0,0,0,5.564-8.217V105.942A24.971,24.971,0,0,0,125.942,81Zm-11.264,32.184a7.241,7.241,0,1,1,7.241-7.241A7.25,7.25,0,0,1,114.678,113.184Zm22.529,0a7.241,7.241,0,1,1,7.241-7.241A7.25,7.25,0,0,1,137.207,113.184Z" transform="translate(-84.748 -67.965)"/><circle class="a" cx="3" cy="3" r="3" transform="translate(26.651 34.739)"/></g></svg>