<svg xmlns="http://www.w3.org/2000/svg" width="76.627" height="76.627" viewBox="0 0 76.627 76.627"><defs><style>.a{fill:#154282;}</style></defs><path class="a" d="M135.976,240.077h-8.155c-.014,0-.027-.014-.041-.014s-.027.014-.041.014H107.214a1.368,1.368,0,1,1,0-2.737h20.525c.014,0,.027.014.041.014s.027-.014.041-.014a2.694,2.694,0,0,0,1.9-.794,2.738,2.738,0,0,0-1.9-4.68h-27.2a1.37,1.37,0,0,1-.506-2.641c6.65-2.668,10.167-5.309,11.946-7.047a2.466,2.466,0,0,0-.219-3.736,2.416,2.416,0,0,0-1.437-.479,2.533,2.533,0,0,0-1.45.465c-5.145,3.544-16.16,7.458-17.392,7.882-.985.342-1.943.671-2.887.971-6.294,2.066-11.248,3.708-13.985,10.564-2.682,6.76-2.408,16.762,2.285,20.293,4.994,3.777,14.039,3.831,14.135,3.831H120.9a2.725,2.725,0,0,0,1.916-.794,2.791,2.791,0,0,0,.794-1.943A2.73,2.73,0,0,0,120.9,256.5H107.214a1.368,1.368,0,0,1,0-2.737H131.9a2.694,2.694,0,0,0,1.9-.794,2.738,2.738,0,0,0-1.9-4.68.257.257,0,0,1-.109-.027.425.425,0,0,1-.109.027H111.155a1.368,1.368,0,1,1,0-2.737H131.68a.424.424,0,0,1,.109.027.257.257,0,0,1,.109-.027h4.078a2.75,2.75,0,0,0,1.916-.794,2.791,2.791,0,0,0,.794-1.943A2.73,2.73,0,0,0,135.976,240.077Z" transform="translate(-62.058 -185.343)"/><path class="a" d="M25.561,26.5c-10.14,0-13.341-5.72-14.258-8.21H6.842a6.842,6.842,0,1,0,0,13.683H37.3C34.8,28.343,30.87,26.5,25.561,26.5ZM5.583,21.871a1.579,1.579,0,0,1,.287-.452,1.433,1.433,0,0,1,1.943,0,1.581,1.581,0,0,1,.287.452,1.147,1.147,0,0,1,.109.52,1.868,1.868,0,0,1-.027.274.864.864,0,0,1-.082.246.759.759,0,0,1-.123.233c-.055.082-.109.151-.164.219a1.388,1.388,0,0,1-1.943,0c-.055-.068-.109-.137-.164-.219a.759.759,0,0,1-.123-.233.873.873,0,0,1-.082-.246,1.864,1.864,0,0,1-.027-.274A1.365,1.365,0,0,1,5.583,21.871ZM8.1,28.384a1.413,1.413,0,0,1-.287.452,1.388,1.388,0,0,1-1.943,0,1.411,1.411,0,0,1-.287-.452,1.29,1.29,0,0,1,0-1.04,1.581,1.581,0,0,1,.287-.452,1.433,1.433,0,0,1,1.943,0,1.581,1.581,0,0,1,.287.452A1.29,1.29,0,0,1,8.1,28.384Zm6.842,0a1.579,1.579,0,0,1-.287.452A2.143,2.143,0,0,1,14.45,29a1.04,1.04,0,0,1-.246.123.873.873,0,0,1-.246.082,1.864,1.864,0,0,1-.274.027,1.149,1.149,0,0,1-.52-.109,1.233,1.233,0,0,1-.739-.739,1.362,1.362,0,0,1-.109-.52,1.868,1.868,0,0,1,.027-.274.864.864,0,0,1,.082-.246,1.04,1.04,0,0,1,.123-.246,2.167,2.167,0,0,1,.164-.205,1.581,1.581,0,0,1,.452-.287,1.31,1.31,0,0,1,.794-.082.873.873,0,0,1,.246.082,1.039,1.039,0,0,1,.246.123l.205.164.164.205a1.037,1.037,0,0,1,.123.246.873.873,0,0,1,.082.246,1.864,1.864,0,0,1,.027.274A1.365,1.365,0,0,1,14.942,28.384Z" transform="translate(0 -15.549)"/><path class="a" d="M312.225,19.157a1.37,1.37,0,0,0,1.368-1.368V1.368a1.368,1.368,0,1,0-2.737,0v16.42A1.37,1.37,0,0,0,312.225,19.157Z" transform="translate(-264.333)"/><path class="a" d="M106.536,23.759c6.9,0,12.023,2.854,14.918,8.21h3.308V18.286H95.227C96.28,20.376,99.122,23.759,106.536,23.759Z" transform="translate(-80.975 -15.549)"/><path class="a" d="M393.143,198.191a3.421,3.421,0,0,0,6.842,0c0-1.857-3.421-6.191-3.421-6.191S393.143,196.333,393.143,198.191Z" transform="translate(-334.304 -163.265)"/><path class="a" d="M381.507,108.442a3.328,3.328,0,0,0,0-4.7c-1.289-1.289-6.65-1.946-6.65-1.946s.657,5.361,1.946,6.65A3.328,3.328,0,0,0,381.507,108.442Z" transform="translate(-318.755 -86.558)"/></svg>