<svg xmlns="http://www.w3.org/2000/svg" xmlns:xlink="http://www.w3.org/1999/xlink" version="1.1" id="Layer_1" x="0px" y="0px" viewBox="0 0 1400 500" style="enable-background:new 0 0 1400 500;" xml:space="preserve">
<style type="text/css">
	.st0{fill:#F0EFEF;}
	.st1{opacity:0.3;fill:#CCCCCB;}
	.st2{fill:#CCCCCB;}
	.st3{fill:#D3D3D3;}
	.st4{fill:#99D4FF;}
	.st5{fill-rule:evenodd;clip-rule:evenodd;fill:#0095FF;}
	.st6{opacity:0.5;fill:#FFB935;}
	.st7{fill:none;stroke:#F48022;stroke-width:2;stroke-linecap:round;stroke-linejoin:round;stroke-miterlimit:10;}
	.st8{fill:#FFB935;}
	.st9{fill:none;stroke:#B5B5B5;stroke-width:2;stroke-linecap:round;stroke-linejoin:round;stroke-miterlimit:10;}
	.st10{fill:none;stroke:#B5B5B5;stroke-width:1.5;stroke-linecap:round;stroke-linejoin:round;stroke-miterlimit:10;}
	.st11{fill:none;stroke:#CCEAFF;stroke-width:42;stroke-miterlimit:10;}
	.st12{fill:none;stroke:#1060E1;stroke-width:15;stroke-miterlimit:10;}
	.st13{fill:none;stroke:#F48024;stroke-width:15;stroke-miterlimit:10;}
	.st14{fill:#CCEAFF;}
	.st15{fill:#FFFFFF;stroke:#FFFFFF;stroke-width:15;stroke-linecap:round;stroke-miterlimit:10;}
	.st16{fill:none;stroke:#FFFFFF;stroke-width:10;stroke-linecap:round;stroke-miterlimit:10;}
	.st17{fill:none;stroke:#F48024;stroke-width:6;stroke-miterlimit:10;}
	.st18{fill:none;stroke:#FFFFFF;stroke-width:13;stroke-linecap:round;stroke-miterlimit:10;}
	.st19{fill:none;stroke:#FFFFFF;stroke-width:11;stroke-linecap:round;stroke-miterlimit:10;}
	.st20{fill:#1060E1;}
	.st21{fill-rule:evenodd;clip-rule:evenodd;fill:url(#SVGID_1_);}
	.st22{fill:url(#SVGID_2_);}
	.st23{fill:#E4E6E8;}
	.st24{fill-rule:evenodd;clip-rule:evenodd;fill:#F5D0A7;}
	.st25{fill:#FFFFFF;}
	.st26{opacity:0.5;fill:#C8CCD0;enable-background:new    ;}
	.st27{fill:#C69C6D;}
	.st28{fill-rule:evenodd;clip-rule:evenodd;fill:url(#SVGID_3_);}
	.st29{fill:url(#SVGID_4_);}
	.st30{fill:#220903;}
	.st31{fill:url(#SVGID_5_);}
	.st32{fill:url(#SVGID_6_);}
	.st33{fill:url(#SVGID_7_);}
	.st34{fill:url(#SVGID_8_);}
	.st35{fill:url(#SVGID_9_);}
	.st36{fill:url(#SVGID_10_);}
	.st37{fill:url(#SVGID_11_);}
	.st38{fill:url(#SVGID_12_);}
	.st39{fill:url(#SVGID_13_);}
	.st40{fill:url(#SVGID_14_);}
	.st41{fill:url(#SVGID_15_);}
	.st42{fill:url(#SVGID_16_);}
	.st43{fill:url(#SVGID_17_);}
	.st44{fill:url(#SVGID_18_);}
	.st45{fill:url(#SVGID_19_);}
	.st46{fill:url(#SVGID_20_);}
	.st47{fill:url(#SVGID_21_);}
	.st48{fill:url(#SVGID_22_);}
	.st49{fill:url(#SVGID_23_);}
	.st50{fill:url(#SVGID_24_);}
	.st51{fill:url(#SVGID_25_);}
	.st52{fill:url(#SVGID_26_);}
	.st53{fill:url(#SVGID_27_);}
	.st54{fill:url(#SVGID_28_);}
	.st55{fill:url(#SVGID_29_);}
	.st56{fill:url(#SVGID_30_);}
	.st57{fill:url(#SVGID_31_);}
	.st58{fill:url(#SVGID_32_);}
	.st59{fill:url(#SVGID_33_);}
	.st60{fill:url(#SVGID_34_);}
	.st61{fill:url(#SVGID_35_);}
	.st62{fill:url(#SVGID_36_);}
	.st63{fill:url(#SVGID_37_);}
	.st64{fill:url(#SVGID_38_);}
	.st65{fill:url(#SVGID_39_);}
	.st66{fill:url(#SVGID_40_);}
	.st67{fill:url(#SVGID_41_);}
	.st68{fill:url(#SVGID_42_);}
	.st69{fill:url(#SVGID_43_);}
	.st70{fill:url(#SVGID_44_);}
	.st71{fill:url(#SVGID_45_);}
	.st72{fill:url(#SVGID_46_);}
	.st73{fill:url(#SVGID_47_);}
	.st74{fill:url(#SVGID_48_);}
	.st75{fill:url(#SVGID_49_);}
	.st76{fill:url(#SVGID_50_);}
	.st77{fill:url(#SVGID_51_);}
	.st78{fill:url(#SVGID_52_);}
	.st79{fill:url(#SVGID_53_);}
	.st80{fill:url(#SVGID_54_);}
	.st81{fill:#001993;}
	.st82{fill:url(#SVGID_55_);}
	.st83{fill:url(#SVGID_56_);}
	.st84{fill:none;stroke:#FFFFFF;stroke-width:0.8505;stroke-linecap:round;stroke-linejoin:round;stroke-miterlimit:10;}
	.st85{fill:#5DC6F0;}
	.st86{fill:url(#SVGID_57_);}
	.st87{fill:url(#SVGID_58_);}
	.st88{fill:url(#SVGID_59_);}
	.st89{fill:url(#SVGID_60_);}
	.st90{fill:#EF5A29;}
	.st91{fill:#F2F2F2;}
	.st92{fill:url(#SVGID_61_);}
	.st93{fill:url(#SVGID_62_);}
	.st94{fill:url(#SVGID_63_);}
	.st95{enable-background:new    ;}
	.st96{fill:url(#SVGID_64_);}
	.st97{fill:url(#SVGID_65_);}
	.st98{fill:url(#SVGID_66_);}
	.st99{fill:url(#SVGID_67_);}
	.st100{fill:url(#SVGID_68_);}
	.st101{fill:url(#SVGID_69_);}
	.st102{fill:url(#SVGID_70_);}
	.st103{fill:url(#SVGID_71_);}
	.st104{fill:url(#SVGID_72_);}
	.st105{fill:url(#SVGID_73_);}
	.st106{fill:url(#SVGID_74_);}
	.st107{fill:url(#SVGID_75_);}
	.st108{fill:url(#SVGID_76_);}
	.st109{fill:url(#SVGID_77_);}
	.st110{fill:url(#SVGID_78_);}
	.st111{fill:url(#SVGID_79_);}
	.st112{fill:url(#SVGID_80_);}
	.st113{fill:url(#SVGID_81_);}
	.st114{fill:url(#SVGID_82_);}
	.st115{fill:url(#SVGID_83_);}
	.st116{fill:url(#SVGID_84_);}
	.st117{fill:url(#SVGID_85_);}
	.st118{fill:url(#SVGID_86_);}
	.st119{fill:url(#SVGID_87_);}
	.st120{fill:url(#SVGID_88_);}
	.st121{fill:url(#SVGID_89_);}
	.st122{fill:url(#SVGID_90_);}
	.st123{fill:url(#SVGID_91_);}
	.st124{fill:url(#SVGID_92_);}
	.st125{fill:url(#SVGID_93_);}
	.st126{fill:url(#SVGID_94_);}
	.st127{fill:url(#SVGID_95_);}
	.st128{fill:url(#SVGID_96_);}
	.st129{fill:url(#SVGID_97_);}
	.st130{fill:#FF7D5F;}
	.st131{fill:url(#SVGID_98_);}
	.st132{fill:#FFB0D2;}
	.st133{fill:#0EC6A7;}
	.st134{fill:url(#SVGID_99_);}
	.st135{fill:url(#SVGID_100_);}
	.st136{fill:url(#SVGID_101_);}
	.st137{fill:url(#SVGID_102_);}
	.st138{fill:#822769;}
	.st139{fill:#FFB79E;}
	.st140{fill:url(#SVGID_103_);}
	.st141{fill:url(#SVGID_104_);}
	.st142{fill:none;stroke:#FFB79E;stroke-width:12.7122;stroke-linecap:round;stroke-linejoin:round;stroke-miterlimit:10;}
	.st143{fill:#133058;}
	.st144{fill:#8ED7DD;}
	.st145{fill:#0CA8C7;}
	.st146{fill:#5986FF;}
	.st147{fill:#335ED4;}
	.st148{fill:#FF5C98;}
	.st149{fill:#B8426D;}
	.st150{fill:#591B48;}
	.st151{fill-rule:evenodd;clip-rule:evenodd;fill:url(#SVGID_105_);}
	.st152{fill-rule:evenodd;clip-rule:evenodd;fill:#EF5A29;}
	.st153{fill-rule:evenodd;clip-rule:evenodd;fill:url(#SVGID_106_);}
	.st154{fill-rule:evenodd;clip-rule:evenodd;fill:url(#SVGID_107_);}
	.st155{fill-rule:evenodd;clip-rule:evenodd;fill:url(#SVGID_108_);}
	.st156{fill-rule:evenodd;clip-rule:evenodd;fill:url(#SVGID_109_);}
	.st157{fill-rule:evenodd;clip-rule:evenodd;fill:url(#SVGID_110_);}
	.st158{fill-rule:evenodd;clip-rule:evenodd;fill:url(#SVGID_111_);}
	.st159{fill-rule:evenodd;clip-rule:evenodd;fill:url(#SVGID_112_);}
	.st160{fill-rule:evenodd;clip-rule:evenodd;fill:url(#SVGID_113_);}
	.st161{fill-rule:evenodd;clip-rule:evenodd;fill:url(#SVGID_114_);}
	.st162{fill-rule:evenodd;clip-rule:evenodd;fill:url(#SVGID_115_);}
	.st163{fill-rule:evenodd;clip-rule:evenodd;fill:url(#SVGID_116_);}
	.st164{fill:#34353F;}
	.st165{fill:#494A59;}
	.st166{fill:url(#SVGID_117_);}
	.st167{fill:#4E4F60;}
	.st168{fill:url(#SVGID_118_);}
	.st169{fill:url(#SVGID_119_);}
	.st170{fill:url(#SVGID_120_);}
	.st171{fill:url(#SVGID_121_);}
	.st172{fill:url(#SVGID_122_);}
	.st173{fill:#616276;}
	.st174{fill:url(#SVGID_123_);}
	.st175{fill:url(#SVGID_124_);}
	.st176{fill:#52558B;}
	.st177{fill:url(#SVGID_125_);}
	.st178{fill:url(#SVGID_126_);}
	.st179{fill:url(#SVGID_127_);}
	.st180{fill:url(#SVGID_128_);}
	.st181{fill:url(#SVGID_129_);}
	.st182{fill:#393B46;}
	.st183{fill:#272425;}
	.st184{fill:url(#SVGID_130_);}
	.st185{fill:#CDDAEB;}
	.st186{fill:#DF922F;}
	.st187{fill:url(#SVGID_131_);}
	.st188{fill:url(#SVGID_132_);}
	.st189{fill:url(#SVGID_133_);}
	.st190{fill:url(#SVGID_134_);}
	.st191{fill:url(#SVGID_135_);}
	.st192{fill:url(#SVGID_136_);}
	.st193{fill:url(#SVGID_137_);}
	.st194{fill:url(#SVGID_138_);}
	.st195{fill:url(#SVGID_139_);}
	.st196{fill:url(#SVGID_140_);}
	.st197{fill:#61ABEB;}
	.st198{fill:url(#SVGID_141_);}
	.st199{fill:url(#SVGID_142_);}
	.st200{fill:url(#SVGID_143_);}
	.st201{fill:url(#SVGID_144_);}
	.st202{fill:#ECC170;}
	.st203{fill:url(#SVGID_145_);}
	.st204{fill:url(#SVGID_146_);}
	.st205{fill:url(#SVGID_147_);}
	.st206{fill:#71728C;}
	.st207{fill:url(#SVGID_148_);}
	.st208{fill:#222228;}
	.st209{fill:url(#SVGID_149_);}
	.st210{fill:#27282F;}
	.st211{fill:#525465;}
	.st212{fill:url(#SVGID_150_);}
	.st213{fill:url(#SVGID_151_);}
	.st214{fill:url(#SVGID_152_);}
	.st215{fill:url(#SVGID_153_);}
	.st216{fill:url(#SVGID_154_);}
	.st217{fill:url(#SVGID_155_);}
	.st218{fill:url(#SVGID_156_);}
	.st219{fill:url(#SVGID_157_);}
	.st220{fill:url(#SVGID_158_);}
	.st221{fill:#5D8CB6;}
	.st222{fill:url(#SVGID_159_);}
	.st223{fill:url(#SVGID_160_);}
	.st224{fill:url(#SVGID_161_);}
	.st225{fill:url(#SVGID_162_);}
	.st226{fill:url(#SVGID_163_);}
	.st227{fill:url(#SVGID_164_);}
	.st228{fill:#A97E54;}
	.st229{fill:#EFC9A9;}
	.st230{fill:#D7A577;}
	.st231{fill:#DE6F4E;}
	.st232{fill:#A9422D;}
	.st233{fill:#D3D3DE;}
	.st234{fill:#F2F4F9;}
	.st235{fill:#B17842;}
	.st236{fill:url(#SVGID_165_);}
	.st237{fill:#D7DDF5;}
	.st238{fill:url(#SVGID_166_);}
	.st239{fill:url(#SVGID_167_);}
	.st240{fill:#4A4D7D;}
	.st241{fill:url(#SVGID_168_);}
	.st242{fill:url(#SVGID_169_);}
	.st243{fill:url(#SVGID_170_);}
	.st244{fill:url(#SVGID_171_);}
	.st245{fill:url(#SVGID_172_);}
	.st246{fill:url(#SVGID_173_);}
	.st247{fill:url(#SVGID_174_);}
	.st248{fill:url(#SVGID_175_);}
	.st249{fill:url(#SVGID_176_);}
	.st250{fill:url(#SVGID_177_);}
	.st251{fill:url(#SVGID_178_);}
	.st252{fill:url(#SVGID_179_);}
	.st253{fill:#474978;}
	.st254{fill:url(#SVGID_180_);}
	.st255{fill:url(#SVGID_181_);}
	.st256{fill:url(#SVGID_182_);}
	.st257{fill:url(#SVGID_183_);}
	.st258{fill:#EAB968;}
	.st259{fill:#EAB867;}
	.st260{fill:#C2873F;}
	.st261{fill:url(#SVGID_184_);}
	.st262{fill:#E4974F;}
	.st263{fill:url(#SVGID_185_);}
	.st264{fill:url(#SVGID_186_);}
	.st265{fill:url(#SVGID_187_);}
	.st266{fill:url(#SVGID_188_);}
	.st267{fill:#B2752C;}
	.st268{fill:url(#SVGID_189_);}
	.st269{fill:url(#SVGID_190_);}
	.st270{fill:#F3D986;}
	.st271{fill:url(#SVGID_191_);}
	.st272{fill:url(#SVGID_192_);}
	.st273{fill:url(#SVGID_193_);}
	.st274{fill:#E3934F;}
	.st275{fill:url(#SVGID_194_);}
	.st276{fill:url(#SVGID_195_);}
	.st277{fill:url(#SVGID_196_);}
	.st278{fill:url(#SVGID_197_);}
	.st279{opacity:0.5;fill:#84582C;}
	.st280{fill:#F4F6FF;}
	.st281{fill:#DDDDE9;}
	.st282{fill:#9A632F;}
	.st283{fill:url(#SVGID_198_);}
	.st284{fill:url(#SVGID_199_);}
	.st285{fill:url(#SVGID_200_);}
	.st286{fill:url(#SVGID_201_);}
	.st287{fill:url(#SVGID_202_);}
	.st288{fill:url(#SVGID_203_);}
	.st289{fill:#909ED0;}
	.st290{fill:url(#SVGID_204_);}
	.st291{fill:url(#SVGID_205_);}
	.st292{fill:#5F7082;}
	.st293{fill:#ACBDCF;}
	.st294{opacity:0.5;fill:#E6E6E6;}
	.st295{fill:#999999;}
	.st296{fill:#5E6A7A;}
	.st297{fill:#FF9935;}
	.st298{fill:#E17D1E;}
	.st299{fill:#B2947E;stroke:#333333;stroke-width:0.1898;stroke-miterlimit:10;}
	.st300{opacity:0.15;fill:#F5F5F5;}
	.st301{opacity:0.47;fill:#8B5E3C;}
	.st302{fill:#AA000E;}
	.st303{opacity:0.47;fill:none;stroke:#F5F5F5;stroke-width:2.062200e-02;stroke-miterlimit:10;}
	.st304{fill:none;stroke:#F5F5F5;stroke-width:2.062200e-02;stroke-miterlimit:10;}
	.st305{fill:#C49A6C;stroke:#333333;stroke-width:0.1898;stroke-miterlimit:10;}
	.st306{fill:#C7B299;}
	.st307{fill:#4D4D4D;}
	.st308{fill:#4C587A;}
	.st309{fill:#808080;}
	.st310{fill:#9C9C9C;}
	.st311{fill:#EFA57F;}
	.st312{fill:#EA9165;}
	.st313{fill:#F8C0A1;}
	.st314{fill:#F4C5AE;}
	.st315{fill:#252525;}
	.st316{fill:#FF7013;}
	.st317{fill:#363636;}
	.st318{fill:#F0CAAA;}
	.st319{fill:#3C2415;}
	.st320{fill:#FF8F21;}
	.st321{fill:#342A27;}
	.st322{fill:#FF7116;}
	.st323{opacity:0.97;fill:#FF9623;}
	.st324{fill:#496489;}
	.st325{fill:#FC6F14;}
	.st326{fill:#C49A6C;stroke:#333333;stroke-width:0.186;stroke-miterlimit:10;}
	.st327{opacity:0.47;fill:none;stroke:#F5F5F5;stroke-width:2.020900e-02;stroke-miterlimit:10;}
	.st328{fill:none;stroke:#F5F5F5;stroke-width:2.020900e-02;stroke-miterlimit:10;}
	.st329{fill:#131111;}
	.st330{fill:#B73A3E;}
	.st331{fill:#F92133;}
	.st332{fill:#3D3B3D;}
	.st333{fill:#231F20;}
	.st334{fill:#DDDDDD;}
	.st335{fill:#BCBEC0;}
	.st336{fill:url(#SVGID_206_);}
	.st337{fill:url(#SVGID_207_);}
	.st338{fill:url(#SVGID_208_);}
	.st339{fill:#FFFFFF;stroke:#3D3B3D;stroke-width:1.2703;stroke-miterlimit:10;}
	.st340{fill:url(#SVGID_209_);}
	.st341{fill:url(#SVGID_210_);}
	.st342{fill:url(#SVGID_211_);}
	.st343{fill:url(#SVGID_212_);}
	.st344{fill:url(#SVGID_213_);}
	.st345{fill:url(#SVGID_214_);}
	.st346{fill:url(#SVGID_215_);}
	.st347{fill:url(#SVGID_216_);}
	.st348{fill:url(#SVGID_217_);}
	.st349{fill:url(#SVGID_218_);}
	.st350{fill:url(#SVGID_219_);}
	.st351{fill:url(#SVGID_220_);}
	.st352{fill:url(#SVGID_221_);}
	.st353{fill:url(#SVGID_222_);}
	.st354{fill:url(#SVGID_223_);}
	.st355{fill:url(#SVGID_224_);}
	.st356{fill:url(#SVGID_225_);}
	.st357{fill:url(#SVGID_226_);}
	.st358{fill:url(#SVGID_227_);}
	.st359{fill:url(#SVGID_228_);}
	.st360{fill:url(#SVGID_229_);}
	.st361{fill:url(#SVGID_230_);}
	.st362{fill:url(#SVGID_231_);}
	.st363{fill:#00AEEF;}
	.st364{opacity:0.2;fill:#FFFFFF;}
	.st365{fill:#A7A9AC;}
	.st366{fill:none;stroke:#202020;stroke-width:1.0715;stroke-miterlimit:10;}
	.st367{fill:#0C3744;}
	.st368{fill:#1E3D45;}
	.st369{fill:#020200;}
	.st370{fill:url(#SVGID_232_);}
	.st371{fill:url(#SVGID_233_);}
	.st372{fill:url(#SVGID_234_);}
	.st373{fill:url(#SVGID_235_);}
	.st374{fill:url(#SVGID_236_);}
	.st375{fill:url(#SVGID_237_);}
	.st376{fill:url(#SVGID_238_);}
	.st377{fill:url(#SVGID_239_);}
	.st378{fill:url(#SVGID_240_);}
	.st379{fill:url(#SVGID_241_);}
	.st380{fill:url(#SVGID_242_);}
	.st381{fill:url(#SVGID_243_);}
	.st382{fill:url(#SVGID_244_);}
	.st383{fill:url(#SVGID_245_);}
	.st384{fill:url(#SVGID_246_);}
	.st385{fill:url(#SVGID_247_);}
	.st386{fill:url(#SVGID_248_);}
	.st387{fill:url(#SVGID_249_);}
	.st388{fill:url(#SVGID_250_);}
	.st389{fill:url(#SVGID_251_);}
	.st390{fill:url(#SVGID_252_);}
	.st391{fill:url(#SVGID_253_);}
	.st392{fill:url(#SVGID_254_);}
	.st393{fill:url(#SVGID_255_);}
	.st394{fill:url(#SVGID_256_);}
	.st395{fill:url(#SVGID_257_);}
	.st396{fill:url(#SVGID_258_);}
	.st397{fill:#FFA535;}
	.st398{fill:#EC1C24;}
	.st399{fill:#FF771A;}
	.st400{fill:url(#SVGID_259_);}
	.st401{fill:url(#SVGID_260_);}
	.st402{fill:url(#SVGID_261_);}
	.st403{fill:url(#SVGID_262_);}
	.st404{fill:url(#SVGID_263_);}
	.st405{fill:url(#SVGID_264_);}
	.st406{fill:url(#SVGID_265_);}
	.st407{fill:url(#SVGID_266_);}
	.st408{fill:url(#SVGID_267_);}
	.st409{fill:url(#SVGID_268_);}
	.st410{fill:#FF5938;}
	.st411{fill:#403B48;}
	.st412{fill:#FFA94B;}
	.st413{fill:#414042;}
	.st414{fill:#FFFFFF;stroke:#3D3B3D;stroke-width:0.7823;stroke-miterlimit:10;}
	.st415{opacity:0.9;fill:#FA4F4E;}
	.st416{fill:#FF8D32;}
	.st417{fill:#AB5948;}
	.st418{fill:#D59F61;}
	.st419{fill:#1A1A1A;}
	.st420{fill:#1D2327;}
	.st421{fill:#C6E0F0;}
	.st422{opacity:0.4;fill:#637078;}
	.st423{fill:#E0EBF8;}
	.st424{opacity:0.2;fill:#231F20;}
	.st425{fill:#007CA2;}
	.st426{fill:#99CEE8;}
	.st427{fill:#F8BEA1;}
	.st428{fill:#EED3AF;}
	.st429{fill:#89A5BB;}
	.st430{filter:url(#Adobe_OpacityMaskFilter);}
	.st431{mask:url(#SVGID_269_);fill:url(#SVGID_270_);}
	.st432{clip-path:url(#SVGID_272_);}
	
		.st433{opacity:0.5;clip-path:url(#SVGID_272_);fill:none;stroke:#ADE0FF;stroke-width:1.0843;stroke-linecap:round;stroke-linejoin:round;stroke-dasharray:4.34,4.34;enable-background:new    ;}
	.st434{opacity:0.5;clip-path:url(#SVGID_272_);fill:#ADE0FF;enable-background:new    ;}
	.st435{opacity:0.5;clip-path:url(#SVGID_272_);fill-rule:evenodd;clip-rule:evenodd;fill:#ADE0FF;enable-background:new    ;}
	.st436{opacity:0.5;clip-path:url(#SVGID_272_);}
	.st437{fill-rule:evenodd;clip-rule:evenodd;fill:#ADE0FF;}
	.st438{fill:#ADE0FF;}
	.st439{clip-path:url(#SVGID_272_);fill:url(#SVGID_273_);}
	.st440{clip-path:url(#SVGID_272_);fill:url(#SVGID_274_);}
	.st441{fill:#9CB839;}
	.st442{clip-path:url(#SVGID_272_);fill:#9CB839;}
	.st443{clip-path:url(#SVGID_272_);fill:#B4BC5C;}
	.st444{clip-path:url(#SVGID_272_);fill:#47665C;}
	.st445{clip-path:url(#SVGID_272_);fill:#323657;}
	.st446{fill:#706865;}
	.st447{fill:#B59074;}
	.st448{clip-path:url(#SVGID_272_);fill:#EEA886;}
	.st449{fill:#515269;}
	.st450{fill:#6A6B8A;}
	.st451{clip-path:url(#SVGID_272_);fill:#FFFFFF;}
	.st452{fill:#34395C;}
	.st453{fill:#EEA886;}
	.st454{fill:#EDDCC5;}
	.st455{fill:#323657;}
	.st456{fill:#494F80;}
	.st457{fill:#403429;}
	.st458{clip-path:url(#SVGID_272_);fill:#FFC05C;}
	.st459{clip-path:url(#SVGID_272_);fill:#A77860;}
	.st460{fill:#FFC05C;}
	.st461{clip-path:url(#SVGID_272_);fill:#D19E4C;}
	.st462{fill:#918783;}
	.st463{fill:#5E5854;}
	.st464{fill:#BFB2AC;}
	.st465{fill:#E2D2CA;}
	.st466{clip-path:url(#SVGID_272_);fill:#D2DFF2;}
	.st467{fill:#D2DFF2;}
	.st468{fill:#DDECEF;}
	.st469{opacity:0.5;clip-path:url(#SVGID_272_);fill:#C4C4D0;}
	.st470{fill:#E3CDA5;}
	.st471{fill:#CFB991;}
	.st472{fill:#F87A52;}
	.st473{fill:#2A2C2B;}
	.st474{fill:#634D52;}
	.st475{fill:#F3C39D;}
	.st476{fill:#F48B51;}
	.st477{fill:#EE5236;}
	.st478{fill:#67445D;}
	.st479{fill:#545146;}
	.st480{fill:#CBA183;}
	.st481{fill:#333332;}
	.st482{clip-path:url(#SVGID_272_);fill:#333332;}
	.st483{clip-path:url(#SVGID_272_);fill:#354242;}
	.st484{fill:#F3F8FF;}
	.st485{opacity:0.7;}
	.st486{fill:#5A81B8;}
	.st487{fill:#757F7F;}
	.st488{fill:#354242;}
	.st489{fill:#D5D8E2;}
	.st490{opacity:0.3;}
	.st491{fill:#C4C4D0;}
	.st492{fill:#485959;}
	.st493{fill:#21211F;}
	.st494{opacity:0.3;fill:#434856;}
	.st495{fill:#67666C;}
	.st496{opacity:0.6;}
	.st497{fill:#303035;}
	.st498{opacity:0.7;fill:#303035;}
	.st499{fill:#566666;}
	.st500{fill:#D0D5DD;}
	.st501{fill:#BCBDBF;}
	.st502{fill:#FED500;}
	.st503{fill:#2F87A5;}
	.st504{opacity:0.6;fill:#7AC9D0;}
	.st505{fill:#0F495D;}
	.st506{fill:#7AC9D0;}
	.st507{fill:#FFAE0B;}
	.st508{fill:#FF9523;}
	.st509{fill:none;stroke:#DD7D0A;stroke-width:2.4814;stroke-miterlimit:10;}
	.st510{fill:#FFBA0D;}
	.st511{fill:#B76E1D;}
	.st512{fill:#DD3344;}
	.st513{fill:#1B3B52;}
	.st514{fill:#E3E5E2;}
	.st515{fill:#127467;}
	.st516{fill:#119C8E;}
	.st517{fill:#E1EBFF;}
	.st518{fill:#A8AEB3;}
	.st519{fill:#434856;}
	.st520{fill:#ABD0D8;}
	.st521{fill:#83A3B7;}
	.st522{fill:#FFF145;}
	.st523{opacity:0.6;clip-path:url(#SVGID_272_);}
	.st524{clip-path:url(#SVGID_272_);fill:#83A3B7;}
	.st525{fill:none;stroke:#333332;stroke-width:2.4814;stroke-linecap:round;stroke-miterlimit:10;}
	.st526{opacity:0.6;clip-path:url(#SVGID_272_);fill:#7AC9D0;}
</style>
<g>
	<defs>
		<rect id="SVGID_271_" width="1400" height="500"/>
	</defs>
	<clipPath id="SVGID_1_">
		<use xlink:href="#SVGID_271_" style="overflow:visible;"/>
	</clipPath>
	<g style="clip-path:url(#SVGID_1_);">
		<rect class="st25" width="1400" height="500"/>
	</g>
	
		<path style="opacity:0.5;clip-path:url(#SVGID_1_);fill:none;stroke:#ADE0FF;stroke-width:1.0843;stroke-linecap:round;stroke-linejoin:round;stroke-dasharray:4.34,4.34;enable-background:new    ;" d="   M105.5,329.5c-42-54-52-219,58.2-254.9C376.4,5.4,501.5,378.8,699.9,277.4c232.6-118.9,616.9-187.2,410.6-201.9   c-211-15,274,129,184.1,265.3"/>
	<path style="opacity:0.5;clip-path:url(#SVGID_1_);fill:#ADE0FF;enable-background:new    ;" d="M93.8,58.1c3.1,0,6.2,0.5,6.7,1.3   c0.5,0.9,1.1-0.9,1.1-4c0-7.2-0.4-7.2-0.4-14.6c0-0.7-0.1-1.5-0.4-2.1c-0.3-0.7-0.7-1.3-1.2-1.8c-0.5-0.5-1.1-0.9-1.8-1.2   s-1.4-0.4-2.1-0.4c-5.4,0-5.4,0.1-10.7,0.1c-0.7,0-1.4,0.1-2.1,0.4c-0.7,0.3-1.3,0.7-1.8,1.2c-0.5,0.5-0.9,1.1-1.2,1.8   s-0.4,1.4-0.4,2.1c0,5.7-0.3,5.7-0.3,11.4c0,1.5,0.7,3,1.7,4c1.1,1.1,2.5,1.7,4.1,1.7C89.3,58,89.3,58.1,93.8,58.1z"/>
	
		<path style="opacity:0.5;clip-path:url(#SVGID_1_);fill-rule:evenodd;clip-rule:evenodd;fill:#ADE0FF;enable-background:new    ;" d="   M1247.7,112.9v1H1234v-1l0.7-0.6c0.8-0.8,0.8-3.5,1.2-5.3c0.8-3.7,4-4.9,4-4.9c0-0.5,0.4-1,1-1c0.5,0,1,0.4,1,1   c0,0,3.3,1.2,4.1,4.9c0.4,1.8,0.4,4.5,1.2,5.3L1247.7,112.9L1247.7,112.9z M1240.8,116.8c1.1,0,1.9-0.9,1.9-1.9h-3.9   C1238.9,115.9,1239.8,116.8,1240.8,116.8z"/>
	
		<path style="opacity:0.5;clip-path:url(#SVGID_1_);fill-rule:evenodd;clip-rule:evenodd;fill:#ADE0FF;enable-background:new    ;" d="   M151.9,104.1c-4.9,0-7.9,5.8-7.9,5.8s2.9,5.8,7.9,5.8c4.8,0,7.7-5.8,7.7-5.8S156.8,104.1,151.9,104.1z M151.9,113.8   c-2.1,0-3.9-1.7-3.9-3.9c0-2.1,1.8-3.9,3.9-3.9c2.2,0,3.9,1.8,3.9,3.9C155.8,112.1,154.1,113.8,151.9,113.8z M151.9,111.9   c1.1,0,1.9-0.9,1.9-1.9s-0.9-1.9-1.9-1.9c-1.1,0-1.9,0.9-1.9,1.9S150.8,111.9,151.9,111.9z"/>
	<g style="opacity:0.5;clip-path:url(#SVGID_1_);">
		<path class="st437" d="M65.2,133.2c-0.5,0-1,0.4-1,1v0.4l-9.5,3.5c-0.8,0.3-1.3,1-1.3,1.8v2.2c0,0.7,0.4,1.3,1,1.7v1.6    c0,1.9,1.5,3.4,3.4,3.4c1.6,0,2.9-1.1,3.3-2.5l3.1,1.1v0.4c0,0.5,0.4,1,1,1c0.5,0,1-0.4,1-1v-13.6    C66.1,133.7,65.7,133.2,65.2,133.2z M56,144.4l3.7,1.4c-0.2,0.8-0.9,1.5-1.8,1.5c-1,0-1.9-0.8-1.9-1.9V144.4z"/>
		<path class="st438" d="M51.5,138.1c-0.5,0-1,0.4-1,1v3.9c0,0.5,0.4,1,1,1s1-0.4,1-1v-3.9C52.5,138.5,52.1,138.1,51.5,138.1z"/>
	</g>
	<path style="opacity:0.5;clip-path:url(#SVGID_1_);fill:#ADE0FF;enable-background:new    ;" d="M37.3,79.3c0-0.6-0.5-1.1-1.1-1.1   c-0.6,0-1.1,0.5-1.1,1.1v2.2H33c-0.6,0-1.1,0.5-1.1,1.1c0,0.6,0.5,1.1,1.1,1.1h2.2v2.2c0,0.6,0.5,1.1,1.1,1.1   c0.6,0,1.1-0.5,1.1-1.1v-2.2h2.2c0.6,0,1.1-0.5,1.1-1.1c0-0.6-0.5-1.1-1.1-1.1h-2.2V79.3z"/>
	<path style="opacity:0.5;clip-path:url(#SVGID_1_);fill:#ADE0FF;enable-background:new    ;" d="M1286.3,4.8c0-0.6-0.5-1.1-1.1-1.1   c-0.6,0-1.1,0.5-1.1,1.1v2.2h-2.2c-0.6,0-1.1,0.5-1.1,1.1s0.5,1.1,1.1,1.1h2.2v2.2c0,0.6,0.5,1.1,1.1,1.1c0.6,0,1.1-0.5,1.1-1.1   V9.1h2.2c0.6,0,1.1-0.5,1.1-1.1s-0.5-1.1-1.1-1.1h-2.2V4.8z"/>
	
		<path style="opacity:0.5;clip-path:url(#SVGID_1_);fill-rule:evenodd;clip-rule:evenodd;fill:#ADE0FF;enable-background:new    ;" d="   M125.1,204.8l-4.6-4.6l-4.6,4.6l4.6,4.6L125.1,204.8z M120.5,206.3l-1.5-1.5l1.5-1.5l1.5,1.5L120.5,206.3z"/>
	
		<path style="opacity:0.5;clip-path:url(#SVGID_1_);fill-rule:evenodd;clip-rule:evenodd;fill:#ADE0FF;enable-background:new    ;" d="   M1369,248.1l-4.6-4.6l-4.6,4.6l4.6,4.6L1369,248.1z M1364.4,249.6l-1.5-1.5l1.5-1.5l1.5,1.5L1364.4,249.6z"/>
	<linearGradient id="SVGID_2_" gradientUnits="userSpaceOnUse" x1="1193.3713" y1="54.2079" x2="1193.3713" y2="343.9921">
		<stop offset="0" style="stop-color:#7DCDFF"/>
		<stop offset="1" style="stop-color:#FFFFFF"/>
	</linearGradient>
	<polygon style="clip-path:url(#SVGID_1_);fill:url(#SVGID_2_);" points="1462,284.7 1462,447 924.7,447 924.7,268.8 945.1,268.8    945.1,300.9 978.3,300.9 978.3,260.6 1004.5,260.6 1004.5,277.6 1018.1,277.6 1029.9,265.8 1043.3,265.8 1043.3,226.7    1080.7,226.7 1080.7,284.7 1119,284.7 1119,298.7 1133.9,298.7 1133.9,277.6 1190.5,277.6 1190.5,300.9 1212.1,300.9 1212.1,268.8    1245.2,268.8 1245.2,316.7 1247.1,316.7 1247.1,252.2 1276.2,252.2 1276.2,268.8 1300.9,268.8 1300.9,300.9 1334,300.9 1334,260.6    1360.2,260.6 1360.2,277.6 1373.8,277.6 1385.6,265.8 1399,265.8 1399,226.7 1436.4,226.7 1436.4,284.7  "/>
	<linearGradient id="SVGID_3_" gradientUnits="userSpaceOnUse" x1="106.3713" y1="88.2079" x2="106.3713" y2="377.9921">
		<stop offset="0" style="stop-color:#7DCDFF"/>
		<stop offset="1" style="stop-color:#FFFFFF"/>
	</linearGradient>
	<polygon style="clip-path:url(#SVGID_1_);fill:url(#SVGID_3_);" points="375,318.7 375,481 -162.3,481 -162.3,302.8 -141.9,302.8    -141.9,334.9 -108.7,334.9 -108.7,294.6 -82.5,294.6 -82.5,311.6 -68.9,311.6 -57.1,299.8 -43.7,299.8 -43.7,260.7 -6.3,260.7    -6.3,318.7 32,318.7 32,332.7 46.9,332.7 46.9,311.6 103.5,311.6 103.5,334.9 125.1,334.9 125.1,302.8 158.2,302.8 158.2,350.7    160.1,350.7 160.1,286.2 189.2,286.2 189.2,302.8 213.9,302.8 213.9,334.9 247,334.9 247,294.6 273.2,294.6 273.2,311.6    286.8,311.6 298.6,299.8 312,299.8 312,260.7 349.4,260.7 349.4,318.7  "/>
	<g style="clip-path:url(#SVGID_1_);">
		<path class="st441" d="M175.3,454.9l0.3,0c0-0.1-0.5-9.4-0.4-20.3c0.1-10.1,0.8-23.7,3.4-31.1l-0.2-0.1    c-2.6,7.4-3.3,21.1-3.4,31.2C174.8,445.5,175.3,454.8,175.3,454.9z"/>
	</g>
	<g style="clip-path:url(#SVGID_1_);">
		<path class="st441" d="M171.6,454.9c0-0.6,3.1-59.9,7-77.8l-0.2-0.1c-3.9,17.9-6.9,77.2-7,77.8L171.6,454.9z"/>
	</g>
	<g style="clip-path:url(#SVGID_1_);">
		<path class="st441" d="M173.1,456.9c0-0.5,2.6-52.9,0.6-63.4l-0.2,0c2,10.5-0.6,62.8-0.6,63.4L173.1,456.9z"/>
	</g>
	<g style="clip-path:url(#SVGID_1_);">
		<path class="st441" d="M173.2,455.7h0.3c0-0.3,0-29.6-2.4-42.9l-0.2,0C173.2,426.2,173.2,455.4,173.2,455.7z"/>
	</g>
	<path style="clip-path:url(#SVGID_1_);fill:#9CB839;" d="M152.7,401.3c0,0,2.6-17.8,9.2-9.4c4.5,5.8,7.5,14.1,8.8,18.6   c0.6,2,1,4,1.1,6.1l0.3,5C157.9,384.7,152.7,401.3,152.7,401.3z"/>
	<path style="clip-path:url(#SVGID_1_);fill:#9CB839;" d="M149.4,380c0,0-2.6-17,12.2-9.4c14.2,7.3,12.6,29.2,12.6,29.2   c-0.9-3.6-2.4-13.4-7.5-19.7C153.3,363.3,149.4,380,149.4,380z"/>
	<path style="clip-path:url(#SVGID_1_);fill:#9CB839;" d="M164.2,434.5c8.5-1.7,8.9,5.6,8.9,5.6v2.7   C172.4,438.2,164.2,434.5,164.2,434.5z"/>
	<path style="clip-path:url(#SVGID_1_);fill:#9CB839;" d="M185,361.3c8.3-6.2,12.7,0,12.7,0s-15.9,0.8-22,35.8   C175.8,397.1,176.8,367.5,185,361.3z"/>
	<path style="clip-path:url(#SVGID_1_);fill:#9CB839;" d="M191.9,386.3c0,0-13.3,17.2-15.9,31.3l0.3-3.3   C176.2,414.3,176.8,389.4,191.9,386.3z"/>
	<path style="clip-path:url(#SVGID_1_);fill:#9CB839;" d="M176,417.6l-0.5,5.1C175.4,421.1,175.6,419.4,176,417.6z"/>
	<path style="clip-path:url(#SVGID_1_);fill:#9CB839;" d="M186.2,423.8c0,0-10.5,10.9-11.2,13.2C175.1,437,179.3,424.5,186.2,423.8z   "/>
	<polygon style="clip-path:url(#SVGID_1_);fill:#B4BC5C;" points="164.8,476.4 161,453.5 185.9,453.5 182.2,476.4  "/>
	
		<rect x="158.7" y="447.4" transform="matrix(-1 -4.490553e-11 4.490553e-11 -1 346.974 900.9424)" style="clip-path:url(#SVGID_1_);fill:#B4BC5C;" width="29.6" height="6.1"/>
	<path style="clip-path:url(#SVGID_1_);fill:#47665C;" d="M161,453.5h24.9l-3.8,22.9h-4.3c0,0,4.2-17.8-16.1-17.9L161,453.5z"/>
	
		<rect x="98.7" y="394.1" transform="matrix(1 -7.579281e-03 7.579281e-03 1 -2.9951 0.888)" style="clip-path:url(#SVGID_1_);fill:#323657;" width="34" height="3.1"/>
	
		<rect x="119.5" y="379.6" transform="matrix(0.2925 -0.9563 0.9563 0.2925 -268.4798 399.3427)" style="clip-path:url(#SVGID_1_);fill:#323657;" width="32.2" height="3"/>
	<g style="clip-path:url(#SVGID_1_);">
		<rect x="194.4" y="401.1" class="st446" width="2.6" height="77"/>
	</g>
	<g style="clip-path:url(#SVGID_1_);">
		
			<rect x="95.5" y="396.4" transform="matrix(-1 -4.490731e-11 4.490731e-11 -1 307.4803 797.5408)" class="st447" width="116.5" height="4.6"/>
	</g>
	<g style="clip-path:url(#SVGID_1_);">
		
			<rect x="109" y="401.1" transform="matrix(-1 -4.531054e-11 4.531054e-11 -1 220.6068 879.2172)" class="st446" width="2.6" height="77"/>
	</g>
	<path style="clip-path:url(#SVGID_1_);fill:#EEA886;" d="M97.7,390.8c0,0,1.8,0.4,2.6,0.4c0.8,0,4.7-1.7,6-1.6   c1.2,0.2,9.4,3.6,9.7,3.9c0.4,0.3-0.2,0.8-0.2,0.8l-18.6,0.2L97.7,390.8z"/>
	<g style="clip-path:url(#SVGID_1_);">
		<path class="st449" d="M65.8,469.2l-1.2,2.6c0,0-5-1.9-5.1-1.9c0-0.1,1.4-3.6,1.4-3.6L65.8,469.2z"/>
	</g>
	<g style="clip-path:url(#SVGID_1_);">
		<path class="st450" d="M108.9,469.1l1.4,4.1c0,0-5.5,1.2-6.3,1.2c-0.1,0-1-4.6-1-4.6L108.9,469.1z"/>
	</g>
	<path style="clip-path:url(#SVGID_1_);fill:#FFFFFF;" d="M103.4,473.1c0,0,3.9-1,4-1.2c0.1-0.2,1.5-1.1,2.3-1   c0.7,0.1,0.8,1,1.5,1.2s6.4,2,7.1,2.4c0.8,0.5,4.5-0.9,5.2,0.1s1.4,3.5-4.4,4.4c-5.9,0.9-12.1,3.5-13.5,3.1   C104.1,481.8,103.2,474.7,103.4,473.1z"/>
	<path style="clip-path:url(#SVGID_1_);fill:#FFFFFF;" d="M59.2,469.1c0,0,3.6,1.5,3.8,1.5c0.2-0.1,1.8,0.1,2.3,0.6   c0.5,0.5,0,1.2,0.5,1.8c0.4,0.6,3,3.9,3.7,4.7c0.6,0.6,4,1.2,5,2.4c0.8,0.8-0.1,4.2-5.8,2.6c-5.5-1.6-12.4-4.3-13.3-5.4   C54.6,476.1,58.1,470.2,59.2,469.1z"/>
	<g style="clip-path:url(#SVGID_1_);">
		<path class="st452" d="M62.9,418.4c0,0,15.7,7,19.1,9.4c3.3,2.4,10.6,6.8,10.9,7.9c0.2,1.1,1.7,0-0.9,5.4    c-2.6,5.4-14.8,18.3-16,19.7c-1.2,1.5-9.7,10.3-9.7,10.3l-6.4-4.8c0,0,12.3-18,14-20.7s2.6-3,1.5-4.2c-1.1-1.2-5.2-1.2-26.8-10.1    c-2.2-0.9-8.2-3-9-5.9c-1.4-5.2-0.2-11.9,5.6-14.8C51,407.7,62.9,418.4,62.9,418.4z"/>
	</g>
	<g style="clip-path:url(#SVGID_1_);">
		<path class="st453" d="M70.3,367.8c-0.1,0.1-0.3,0.4-0.4,0.8c-0.2,0.5-0.5,1.3-0.7,2.1c-0.7,2.5-1.4,5.7-1.4,5.7s-9-7.5-7.7-8    c1.3-0.5,2.2-2.7,2.2-2.7S71.3,367,70.3,367.8z"/>
	</g>
	<g style="clip-path:url(#SVGID_1_);">
		<path class="st454" d="M69.8,393.7c0,0-7.3,14-7.6,19.2c-0.3,5.2-15.2-1.6-15.2-1.6L69.8,393.7z"/>
	</g>
	<g style="clip-path:url(#SVGID_1_);">
		<path class="st455" d="M62.2,412.6l0.2,1.3l0.3,1.7c0,0,0,0,0,0s0,0,0,0c-0.2,0-14.6-0.9-15.6-0.7c-1,0.3,2-3.4,2-3.4L62.2,412.6z    "/>
	</g>
	<g style="clip-path:url(#SVGID_1_);">
		<path class="st456" d="M62.6,415.6c0,0,16.2,3.8,20.3,5.1c4,1.3,10.9,3.5,12.8,4.6c1,0.6,2.5,1.4,4.3,7.3c2,6.7,6.7,25.4,7.8,28.3    c0.7,1.8,2.6,9,2.6,9l-8.3,1.4c0,0-9.9-19.9-10.7-25.2c-1.3-8.9-4.8-9-6.2-9.8c-1.4-0.8-8.1,0.7-32.1-1.2    c-2.4-0.2-8.9-0.3-10.6-2.9c-3.1-4.7-6.1-10-1.4-14.7C45.7,412.9,62.6,415.6,62.6,415.6z"/>
	</g>
	<g style="clip-path:url(#SVGID_1_);">
		<path class="st453" d="M73.5,349c0,0,2.8,4.9,2.2,6.2c-0.6,1.3,2.9,4.5,2.3,5.2c-0.6,0.7-1.8,1.5-1.8,1.7c0,0.2-1,6.5-2.4,6.7    c-1.4,0.1-10.8-0.3-11.6-3.3c-0.8-2.9-3.1-9.4-3.6-10.6C58.1,353.6,63.5,344.4,73.5,349z"/>
	</g>
	<g style="clip-path:url(#SVGID_1_);">
		<path class="st457" d="M61.9,348.1c-0.8,0.6-1.4,1.2-1.9,1.8c-0.6,0.3-4.3,2.1-3.5,4.1c1,2.6,5.1,9.7,5.5,10.4c0,0.1,0-0.1,0-0.5    c0.3-2.5,3.3-5.3,3.3-5.3l1.6-0.7c-0.9-1.6-0.5-3.1-0.5-3.1c1.9-2,8-4.1,8-4.1C73.5,341.9,66,345,61.9,348.1z"/>
	</g>
	<g style="clip-path:url(#SVGID_1_);">
		<path class="st453" d="M64.7,356.6c-0.4-0.7-2.7-0.6-2.4,1.4c0.3,2,3.2,3.5,3.8,2.7C66.7,359.8,65.1,357.3,64.7,356.6z"/>
	</g>
	<path style="clip-path:url(#SVGID_1_);fill:#FFC05C;" d="M60.1,368.4c0,0-11.4,6.6-14,18.2c-2.6,11.6-7.2,32-7.3,34.4   c0,0,15.4-7.4,23.8-5.4c0,0,5.3-18.9,8-23.4c2.8-4.5-1.3-15-1.3-15S65.4,371,60.1,368.4z"/>
	<path style="clip-path:url(#SVGID_1_);fill:#A77860;" d="M69.9,368.6c-0.2,0.5-0.5,1.3-0.7,2.1c-1.3-0.6-3.9-2.9-4-3   C66.3,368,69.9,368.6,69.9,368.6z"/>
	<g style="clip-path:url(#SVGID_1_);">
		<path class="st460" d="M64.5,374.4c0,0,1.2,1.4,2.9,4.3c1.9,3.3,3.4,6.6,3.9,7.3c0.8,1.5,3.8,3,5.1,3.6c1.2,0.5,22.2,1,22.4,0.9    c0.3,0-0.3,6.4-0.3,6.4s-28.9,0.8-30.2-0.3c-1.3-1.2-4.9-5.5-6.5-7.7c-1.5-2.1-3.7-5.4-4.9-6.9c-1.3-1.6-4.1-7.2-0.6-10    C61,368.4,63.5,372.8,64.5,374.4z"/>
	</g>
	<path style="clip-path:url(#SVGID_1_);fill:#D19E4C;" d="M57.4,384.7c0,0,3.3,8.8,5.2,11.8c2,3,4.1,5.5,4.1,5.5l1-3   C67.8,399,59.4,387.4,57.4,384.7z"/>
	<g style="clip-path:url(#SVGID_1_);">
		<g>
			<polygon class="st462" points="22,480.7 22.7,482.6 51.9,473.5 50.5,469.6    "/>
		</g>
	</g>
	<g style="clip-path:url(#SVGID_1_);">
		<g>
			<rect x="49.6" y="440.3" class="st462" width="3.3" height="31.8"/>
		</g>
	</g>
	<g style="clip-path:url(#SVGID_1_);">
		<g>
			<rect x="41.4" y="438.7" class="st463" width="19.6" height="1.9"/>
		</g>
	</g>
	<g style="clip-path:url(#SVGID_1_);">
		<g>
			<polygon class="st462" points="80.8,480.7 80.1,482.6 50.9,473.5 52.1,469.3    "/>
		</g>
	</g>
	<g style="clip-path:url(#SVGID_1_);">
		<g>
			<polygon class="st462" points="60.2,482.4 60.2,484.7 50.9,473.5 52.1,469.3    "/>
		</g>
	</g>
	<g style="clip-path:url(#SVGID_1_);">
		<g>
			<path class="st464" d="M83.5,483.4c0,1.5-1.2,2.7-2.7,2.7c-1.5,0-2.7-1.2-2.7-2.7c0-1.5,1.2-2.7,2.7-2.7     C82.3,480.6,83.5,481.9,83.5,483.4z"/>
		</g>
	</g>
	<g style="clip-path:url(#SVGID_1_);">
		<g>
			<path class="st464" d="M60.4,483.4c0,1.5-1.2,2.7-2.7,2.7c-1.5,0-2.7-1.2-2.7-2.7c0-1.5,1.2-2.7,2.7-2.7     C59.2,480.6,60.4,481.9,60.4,483.4z"/>
		</g>
	</g>
	<g style="clip-path:url(#SVGID_1_);">
		<g>
			<path class="st464" d="M24.7,483.4c0,1.5-1.2,2.7-2.7,2.7c-1.5,0-2.7-1.2-2.7-2.7c0-1.5,1.2-2.7,2.7-2.7     C23.5,480.6,24.7,481.9,24.7,483.4z"/>
		</g>
	</g>
	<g style="clip-path:url(#SVGID_1_);">
		<path class="st465" d="M71.4,438.7h-40c-1.8,0-3.2-1.4-3.2-3.2v-0.6c0-1.8,1.4-3.2,3.2-3.2h40c1.8,0,3.2,1.4,3.2,3.2v0.6    C74.6,437.2,73.2,438.7,71.4,438.7z"/>
	</g>
	<g style="clip-path:url(#SVGID_1_);">
		<path class="st465" d="M31.5,426.6h-2.3c-6.6,0-11.9-5.3-11.9-11.9v-20.6c0-6.6,5.3-11.9,11.9-11.9h2.3c6.6,0,11.9,5.3,11.9,11.9    v20.6C43.4,421.3,38.1,426.6,31.5,426.6z"/>
	</g>
	<g style="clip-path:url(#SVGID_1_);">
		<path class="st465" d="M43.7,436.9c-4.7,0-8.6-1.6-11.4-4.7c-6.4-7.1-5.3-19.5-5.2-20c0.1-1,1-1.7,1.9-1.6c1,0.1,1.7,1,1.6,1.9    c0,0.1-1,11.4,4.3,17.3c2.2,2.4,5,3.5,8.7,3.5c1,0,1.8,0.8,1.8,1.8C45.4,436.1,44.6,436.9,43.7,436.9z"/>
	</g>
	<rect x="1140" y="450.8" style="clip-path:url(#SVGID_1_);fill:#D2DFF2;" width="231" height="24.6"/>
	<g style="clip-path:url(#SVGID_1_);">
		<g>
			<g>
				<g>
					<polygon class="st467" points="1150.2,330.6 1150.2,450.8 1360.9,450.8 1360.9,330.6 1255.5,290.3      "/>
				</g>
			</g>
			<g>
				<g>
					<polygon class="st429" points="1364.4,322.9 1255.5,281.1 1146.6,322.9 1146.6,332 1255.5,290.3 1364.4,332      "/>
				</g>
			</g>
			<g>
				<rect x="1163.6" y="349.2" class="st25" width="183.8" height="101.6"/>
			</g>
			<g>
				<g>
					<rect x="1235" y="313.2" class="st429" width="41" height="3.2"/>
				</g>
				<g>
					<rect x="1235" y="318.2" class="st429" width="41" height="3.2"/>
				</g>
				<g>
					<rect x="1235" y="323.3" class="st429" width="41" height="3.2"/>
				</g>
				<g>
					<rect x="1235" y="328.3" class="st429" width="41" height="3.2"/>
				</g>
				<g>
					<rect x="1235" y="333.3" class="st429" width="41" height="3.2"/>
				</g>
			</g>
		</g>
		<g>
			<g>
				<rect x="1166.3" y="362.5" class="st468" width="34.9" height="21.4"/>
			</g>
			<g>
				<g>
					<rect x="1323.3" y="362.5" class="st468" width="22.3" height="21.4"/>
				</g>
				<rect x="1332.9" y="362.5" class="st25" width="3.1" height="3.1"/>
			</g>
			<g>
				<rect x="1166.3" y="384.8" class="st468" width="34.9" height="21.4"/>
			</g>
			<g>
				<rect x="1202.1" y="384.8" class="st468" width="34.9" height="21.4"/>
			</g>
			<g>
				<g>
					<rect x="1300.1" y="384.8" class="st468" width="22.3" height="21.4"/>
				</g>
				<rect x="1309.7" y="384.8" class="st25" width="3.1" height="3.1"/>
			</g>
			<g>
				<g>
					<rect x="1323.3" y="384.8" class="st468" width="22.3" height="21.4"/>
				</g>
				<rect x="1332.9" y="384.8" class="st25" width="3.1" height="3.1"/>
			</g>
			<g>
				<rect x="1166.3" y="407.1" class="st468" width="34.9" height="21.4"/>
			</g>
			<g>
				<rect x="1202.1" y="407.1" class="st468" width="34.9" height="21.4"/>
			</g>
			<g>
				<g>
					<rect x="1300.1" y="407.1" class="st468" width="22.3" height="21.4"/>
				</g>
				<rect x="1309.7" y="407.1" class="st25" width="3.1" height="3.1"/>
			</g>
			<g>
				<g>
					<rect x="1323.3" y="407.1" class="st468" width="22.3" height="21.4"/>
				</g>
				<rect x="1332.9" y="407.1" class="st25" width="3.1" height="3.1"/>
			</g>
			<g>
				<rect x="1166.3" y="429.5" class="st468" width="34.9" height="21.4"/>
			</g>
			<g>
				<rect x="1202.1" y="429.5" class="st468" width="34.9" height="21.4"/>
			</g>
			<g>
				<g>
					<rect x="1300.1" y="429.5" class="st468" width="22.3" height="21.4"/>
				</g>
				<rect x="1309.7" y="429.5" class="st25" width="3.1" height="3.1"/>
			</g>
			<g>
				<g>
					<rect x="1323.3" y="429.5" class="st468" width="22.3" height="21.4"/>
				</g>
				<rect x="1332.9" y="429.5" class="st25" width="3.1" height="3.1"/>
			</g>
		</g>
	</g>
	<path style="opacity:0.5;clip-path:url(#SVGID_1_);fill:#C4C4D0;" d="M1301.4,467.8c0,1.8-35.5,3.2-79.2,3.2   c-43.7,0-79.2-1.4-79.2-3.2s35.5-3.2,79.2-3.2C1265.9,464.6,1301.4,466,1301.4,467.8z"/>
	<path style="opacity:0.5;clip-path:url(#SVGID_1_);fill:#C4C4D0;" d="M1358.4,466.8c0,1.2-9.7,2.2-21.7,2.2c-12,0-21.7-1-21.7-2.2   s9.7-2.2,21.7-2.2C1348.7,464.6,1358.4,465.6,1358.4,466.8z"/>
	<g style="clip-path:url(#SVGID_1_);">
		<g>
			
				<rect x="1312.4" y="453.6" transform="matrix(0.2588 -0.9659 0.9659 0.2588 533.0944 1613.4476)" class="st470" width="11" height="11.6"/>
		</g>
		<g>
			
				<rect x="1317.1" y="445.3" transform="matrix(0.2588 -0.9659 0.9659 0.2588 544.8087 1610.0275)" class="st471" width="8.9" height="9.4"/>
		</g>
		<g>
			<g>
				<g>
					<path class="st472" d="M1310.9,464l11.7,3.1l7.6-28.2l3.3,0.9c0.2,0,0.4-0.1,0.4-0.3c0.1-0.2-0.1-0.4-0.3-0.4l-4-1.1l-7.6,28.2       l-11-3c-0.2-0.1-0.4,0.1-0.4,0.2C1310.6,463.7,1310.8,463.9,1310.9,464z"/>
				</g>
			</g>
			<g>
				<g>
					<path class="st473" d="M1325,465.9c-0.3,1.2-1.5,1.9-2.7,1.6c-1.2-0.3-1.9-1.5-1.6-2.7c0.3-1.2,1.5-1.9,2.7-1.6       C1324.6,463.4,1325.3,464.7,1325,465.9z"/>
				</g>
				<g>
					<path class="st474" d="M1324.1,465.6c-0.2,0.7-1,1.2-1.7,1c-0.7-0.2-1.2-1-1-1.7c0.2-0.7,1-1.2,1.7-1       C1323.9,464.1,1324.3,464.9,1324.1,465.6z"/>
				</g>
			</g>
		</g>
	</g>
	<g style="clip-path:url(#SVGID_1_);">
		<g>
			<polygon class="st475" points="1347.5,464.1 1347.8,465.7 1349.8,465.4 1349.6,463.7    "/>
			<path class="st476" d="M1349.1,467.1l-4.8,0.8c0,0-0.4-0.6,0.2-1c0.6-0.4,1.9-0.5,2.4-1.1c0.4-0.7,0.5-1.1,1-1     c0.5,0.1,1.4,0.4,2,0.2c0.6-0.2,0.9,1.9,0.9,1.9L1349.1,467.1z"/>
		</g>
		<g>
			<path class="st476" d="M1346,439.4c-0.2-2.3-0.3-5.9-0.5-7.7c-0.2-1.7,0.1-6.6-1.8-7.1l-2.7,0.7c0,0-0.9,0.4-1.6,1.8     c-0.7,1.4-0.8,1.8-0.8,3c0,1.7,0.6,3.8,0.6,5.8c0,1.8-0.1,2.3,0.1,4.1h6.9C1346.2,439.8,1346,439.6,1346,439.4z"/>
			<path class="st477" d="M1337,448.3c-1.1,3.6-1.2,5.1-2.4,9.6c-1.1,4.1-1.9,4.8-1.9,4.8l3.3,1.4c0,0,1.5-3.2,1.9-4.8     c0.3-1.2,2.1-4.5,2.8-6.9c0.6-2.3,1.6-4.9,1.6-4.9s1.4,6.3,1.7,8.1c0.2,1.9,2.6,8.7,2.6,8.7l3.8-0.6c0,0-1.7-7.6-2.5-9.4     c-0.1-0.2-1.6-9-1.6-8.8c0-1.3,0.6-3.8,0-5.5h-6.9c0,0,0,0.1,0,0.1C1339.6,441.9,1338.2,444.8,1337,448.3z"/>
		</g>
		<path class="st477" d="M1341.4,430.1c0,0,0.3-2.2,0.6-3.1c0.3-0.9,1.1-1.2,1.6-0.8c0.6,0.4,1.9,1.5,0.1,4.9L1341.4,430.1z"/>
		<g>
			<polygon class="st475" points="1333.3,463 1332.6,464.5 1334.5,465.3 1335.3,463.8    "/>
			<path class="st476" d="M1333,466.4l-4.5-1.9c0,0,0-0.7,0.7-0.8c0.7,0,1.9,0.6,2.6,0.3c0.7-0.4,1-0.7,1.4-0.3     c0.4,0.3,1,1.1,1.6,1.2c0.6,0.1-0.3,2.1-0.3,2.1L1333,466.4z"/>
		</g>
		<path class="st475" d="M1343.7,431.1l-2.3-1c0,0-1.3,5-1.6,6.2c-1.9,0.4-4.4,0.8-4.9,1c-0.8,0.3-2.6-0.2-3.6,0.3    c-1,0.6-1.2,0.8-1,1.3c0.1,0.4,1,1.6,1.7,1.4c0.7-0.2,2-1.2,2.8-1.3c0.8-0.1,5.4-0.3,6.6-0.7c0.4-0.1,0.6-0.4,0.7-0.7l0,0    C1342.4,436.6,1343.7,431.1,1343.7,431.1z"/>
		<g>
			<path class="st475" d="M1343.7,424.7c-0.2-1.1,0.3-2.8,0.2-3.7c0,0,0-1.2-0.1-1.5c0,0-0.9-1.3-1.4-1.2c0,0-2-0.3-3,0.6     c-0.5,0.4-0.4,0.9-0.4,1.1c-0.2,0.8-0.3,1-0.2,1.2c0.1,0.2,0.3,0.2,0.1,0.5c-0.2,0.3-0.5,0.7-0.2,0.8c0.3,0.1,0.3,0.2,0.3,0.2     s-0.1,0.4-0.1,0.4s0.1,0,0.1,0.1c0,0.1-0.1,0.1,0,0.3c0.1,0.1,0.2,0,0.2,0.3s0.1,0.5,0.4,0.5c0,0,1.6-0.6,1.7-0.1     c0,0.4,0.1,1-0.2,1.1L1343.7,424.7z"/>
			<path class="st478" d="M1340.7,420.8c0-0.4,0.3-1.1-0.3-1.3c-0.5-0.2-1,0.7-1.6,0.6c-0.6,0-0.8-2.1-0.2-2     c0.7,0.1,3.3-0.9,4.2-0.3c0.8,0.5,1.4,1.3,1.5,2.6c0,1.3,0,2.6-0.2,3.1c-0.1,0.6-1.5,0.1-1.5-0.1c0.1-0.2,1-1.6,0.3-1.9     c-0.7-0.4-0.7,0-0.9,0.5C1342,422.3,1340.7,421.5,1340.7,420.8z"/>
			<g>
				<g>
					<g>
						<path class="st479" d="M1339.1,421.6c0,0.1,0.1,0.3,0.2,0.3c0.1,0,0.2-0.1,0.2-0.3c0-0.1-0.1-0.3-0.2-0.3        C1339.1,421.3,1339.1,421.4,1339.1,421.6z"/>
					</g>
				</g>
				<g>
					<g>
						<path class="st479" d="M1339.4,421.1C1339.4,421.1,1339.5,421.1,1339.4,421.1c0.1-0.1,0.1-0.1,0-0.1c-0.2-0.1-0.5-0.1-0.7,0        c0,0,0,0.1,0,0.1c0,0,0.1,0,0.1,0C1339,421,1339.2,421,1339.4,421.1C1339.4,421.1,1339.4,421.1,1339.4,421.1z"/>
					</g>
				</g>
			</g>
			<path class="st480" d="M1340.9,424.1c0.6-0.2,1.3-0.3,1.8-0.7l0.9,0.4c0,0-0.1,0.5,0,1l-0.4,0.1c0,0-0.1-0.8-2.2-0.6     L1340.9,424.1z"/>
		</g>
	</g>
	<g style="clip-path:url(#SVGID_1_);">
		<path class="st481" d="M1147,427c0,2.8-1.1,5-2.5,5s-2.5-2.3-2.5-5v-0.3c0-2.8,1.1-5,2.5-5s2.5,2.3,2.5,5V427z"/>
	</g>
	<g style="clip-path:url(#SVGID_1_);">
		<ellipse class="st481" cx="1144.5" cy="436" rx="2.5" ry="2.6"/>
	</g>
	<g style="clip-path:url(#SVGID_1_);">
		<g>
			<path class="st481" d="M1216.5,447.7c-2.7,0.1-4.7,4.7-4.7,10.3c0.1,5.5,2.3,9.9,4.9,9.8h4.8l-2.8-12.7L1216.5,447.7z"/>
			<g>
				<g>
					<g>
						<path class="st481" d="M1226.2,457.5c-0.1-5.5-2.3-9.9-4.9-9.8c-2.7,0.1-4.7,4.7-4.7,10.3c0.1,5.5,2.3,9.9,4.9,9.8        C1224.2,467.7,1226.3,463.1,1226.2,457.5z"/>
					</g>
				</g>
			</g>
		</g>
	</g>
	<g style="clip-path:url(#SVGID_1_);">
		<g>
			<path class="st481" d="M1231.4,447.7c-2.7,0.1-4.7,4.7-4.7,10.3c0.1,5.5,2.3,9.9,4.9,9.8h4.2l-2.1-12.7L1231.4,447.7z"/>
			<g>
				<g>
					<g>
						<path class="st481" d="M1240.5,457.5c-0.1-5.5-2.3-9.9-4.9-9.8c-2.7,0.1-4.7,4.7-4.7,10.3c0.1,5.5,2.3,9.9,4.9,9.8        C1238.5,467.7,1240.6,463.1,1240.5,457.5z"/>
					</g>
				</g>
			</g>
		</g>
	</g>
	<g style="clip-path:url(#SVGID_1_);">
		<g>
			<path class="st481" d="M1245.5,447.7c-2.7,0.1-4.7,4.7-4.7,10.3c0.1,5.5,2.3,9.9,4.9,9.8h4.2l-2.1-12.7L1245.5,447.7z"/>
			<g>
				<g>
					<g>
						<path class="st481" d="M1254.7,457.5c-0.1-5.5-2.3-9.9-4.9-9.8c-2.7,0.1-4.7,4.7-4.7,10.3c0.1,5.5,2.3,9.9,4.9,9.8        C1252.6,467.7,1254.7,463.1,1254.7,457.5z"/>
					</g>
				</g>
			</g>
		</g>
	</g>
	<g style="clip-path:url(#SVGID_1_);">
		<g>
			<g>
				<g>
					<path class="st481" d="M1230.4,457.4c-0.1-5.5-2.3-9.9-4.9-9.8c-2.7,0.1-4.7,4.7-4.7,10.3c0.1,5.5,2.3,9.9,4.9,9.8       C1228.3,467.5,1230.4,462.9,1230.4,457.4z"/>
				</g>
			</g>
		</g>
	</g>
	<polygon style="clip-path:url(#SVGID_1_);fill:#333332;" points="1270.2,452.2 1268.8,453.9 1267.9,450.9 1266.9,447.8    1265.5,443.2 1264.1,448 1262.9,451.9 1262.2,453.9 1260.8,452.2 1261.8,449.1 1262.8,445.6 1264.6,440 1265.5,441.2 1266.5,440    1268.2,445.4 1269.1,448.3  "/>
	<polygon style="clip-path:url(#SVGID_1_);fill:#333332;" points="1285,452.2 1283.6,453.9 1282.7,450.9 1281.7,447.8 1280.3,443.2    1278.8,448 1277.7,451.9 1277,453.9 1275.6,452.2 1276.6,449.1 1277.6,445.6 1279.4,440 1280.3,441.2 1281.3,440 1283,445.4    1283.8,448.3  "/>
	<polygon style="clip-path:url(#SVGID_1_);fill:#354242;" points="1296.2,443.4 1294.8,445.1 1294.5,444.2 1295.9,445.1    1294.8,443.2 1293.3,448 1292.1,451.9 1291.5,453.9 1290.1,452.2 1291.1,449.1 1292.1,445.6 1293.9,440 1294.8,441.2 1295.8,440    1297.4,445.4 1296.6,445.6  "/>
	<g style="clip-path:url(#SVGID_1_);">
		<g>
			<path class="st484" d="M1170.4,439.8c-3.1,0-5.7-2.6-5.7-5.7v-32.3c0-3.1,2.6-5.7,5.7-5.7h105.8c3.1,0,5.7,2.6,5.7,5.7v32.3     c0,3.1-2.6,5.7-5.7,5.7H1170.4z"/>
		</g>
		<g class="st485">
			<path class="st486" d="M1196.4,438.7c-3.1,0-5.7-2.6-5.7-5.7v-25.3c0-3.1,2.6-5.7,5.7-5.7h4.7c3.1,0,5.7,2.6,5.7,5.7V433     c0,3.1-2.6,5.7-5.7,5.7H1196.4z"/>
		</g>
		<path class="st487" d="M1209.3,435.1H1181v5.8h28.3V435.1z"/>
		<g>
			<g>
				<g>
					<path class="st481" d="M1220.5,440.9v8.7c0,1,0.9,1.9,1.9,1.9h61.1c1,0,1.9-0.9,1.9-1.9v-8.2"/>
				</g>
			</g>
			<polygon class="st481" points="1258.8,444.4 1256.8,451.7 1255.8,455.4 1232.4,455.9 1232.4,444.4    "/>
			<g class="st485">
				<path class="st488" d="M1248.5,452.3c0,1.8,0.7,3.3,1.5,3.3c0.8,0,1.5-0.3,1.5-0.8c0-0.4,0-2.3,0-4.1v-3c0-1.8-0.7-3.3-1.5-3.3      c-0.8,0-1.5,1.5-1.5,3.3V452.3z"/>
			</g>
			<g>
				<g>
					<path class="st481" d="M1230.6,440.9v3.6c0,1,0.9,1.9,1.9,1.9h63.8c1,0,1.9-0.9,1.9-1.9v-3"/>
				</g>
			</g>
			<g>
				<g>
					<path class="st481" d="M1253.3,440.9v3.6c0,1,0.9,1.9,1.9,1.9h36.2c1,0,2.1-0.8,2.4-1.8l0.9-3.1"/>
				</g>
			</g>
			<g>
				<path class="st488" d="M1299.7,440.9v3.6c0,1,0.4,1.9,1,1.9s1-0.9,1-1.9v-3"/>
			</g>
			<g>
				<g>
					<path class="st489" d="M1214.7,440c-3.1,0-5.7-2.6-5.7-5.7V402c0-3.1,2.6-5.7,5.7-5.7h80.3c3.1,0,5.7,2.6,5.7,5.7v32.3       c0,3.1-2.6,5.7-5.7,5.7H1214.7z"/>
				</g>
				<g class="st490">
					<path class="st491" d="M1214.9,436.8c-2.1,0-3.8-1.7-3.8-3.8v-30.8c0-2.1,1.7-3.8,3.8-3.8h29.1c2.1,0,3.5,1.7,3.1,3.7l-6.3,31       c-0.4,2.1-2.5,3.7-4.6,3.7H1214.9z"/>
				</g>
				<g class="st490">
					<path class="st491" d="M1255.3,398.4c1.9,0,3.1,1.7,2.7,3.7l-6.3,31c-0.4,2.1-2.3,3.7-4.2,3.7s-3.1-1.7-2.7-3.7l6.3-31       C1251.4,400.1,1253.3,398.4,1255.3,398.4z"/>
				</g>
				<g class="st490">
					<path class="st491" d="M1294.1,398.4c2.1,0,3.8,1.7,3.8,3.8V433c0,2.1-1.7,3.8-3.8,3.8h-31.6c-2.1,0-3.5-1.7-3.1-3.7l6.3-31       c0.4-2.1,2.5-3.7,4.6-3.7H1294.1z"/>
				</g>
			</g>
			<g>
				<g>
					<path class="st492" d="M1299.7,397.6c0-1.5,0.4-2.7,1-2.7s1,1.2,1,2.7v40.6c0,1.5-0.4,2.7-1,2.7s-1-1.2-1-2.7V397.6z"/>
				</g>
			</g>
			<g>
				<polygon class="st481" points="1256.1,452.6 1254.6,454.3 1253.5,450.7 1252.6,447.7 1250.9,442.1 1252.7,442.5 1253.9,445.5       1254.8,448.4     "/>
				<polygon class="st488" points="1256.9,452.2 1255.5,453.9 1254.4,450.4 1253.5,447.3 1251.8,441.7 1253.2,440 1254.7,445.1       1255.6,448     "/>
				<polygon class="st488" points="1271.2,452.2 1269.8,453.9 1268.8,450.9 1267.9,447.8 1266.5,443.2 1265,448 1263.8,451.9       1263.2,453.9 1261.8,452.2 1262.7,449.1 1263.8,445.6 1265.5,440 1266.5,441.2 1267.4,440 1269.1,445.4 1270,448.3     "/>
				<polygon class="st488" points="1295.9,441.7 1294.1,447.6 1292.9,451.4 1292.1,453.9 1290.7,452.2 1291.8,448.7 1292.8,445.3       1294.5,440     "/>
				<polygon class="st488" points="1285.9,452.2 1284.5,453.9 1283.5,450.8 1282.5,447.7 1281,442.5 1279.4,447.6 1278.3,451.3       1277.5,453.9 1276,452.2 1277.1,448.7 1278.2,445.3 1279.8,440 1281,441.4 1282.1,440 1283.8,445.4 1284.7,448.3     "/>
			</g>
			<path class="st488" d="M1283.8,444.4c-0.5,0.7-1.1,1.7-1.5,2.6l1.2,3.8c0.3-0.9,1-2.1,1.4-2.8L1283.8,444.4z"/>
			<path class="st488" d="M1296.9,442.1h-59.3v1.6h59.3V442.1z"/>
			<g>
				<g>
					<g>
						<g>
						</g>
					</g>
				</g>
			</g>
		</g>
		<g>
			<path class="st493" d="M1253.7,447.7c-2.7,0.1-4.7,4.7-4.7,10.3c0.1,5.5,2.3,9.9,4.9,9.8h4.8l-0.6-12.2L1253.7,447.7z"/>
			<g>
				<path class="st492" d="M1260.1,444.7l-2.5,1.8c-1.1,0.1-1,0.8-1.7,2.2c-0.1,0.1-0.1,0.3-0.2,0.4c-0.4,0.7-0.8,1.6-1.1,2.6      c-0.6,1.9-0.9,4.1-0.9,6.5c0,0.5,0,0.9,0.1,1.4l-5.3,0c0-0.4,0-0.7,0-1.1c0-0.1,0-0.2,0-0.3c0-0.8,0-1.5,0.1-2.3      c0.1-2,0.5-3.9,1.1-5.6c1.2-3.3,3.1-5.5,5.2-5.6L1260.1,444.7z"/>
				<path class="st488" d="M1260.1,444.7l-2.5,1.8c-1.1,0.1-1,0.8-1.7,2.2l-6.3,1.7c1.2-3.3,3.1-5.5,5.2-5.6L1260.1,444.7z"/>
			</g>
		</g>
		<g>
			<path class="st493" d="M1268.1,447.7c-2.7,0.1-4.7,4.7-4.7,10.3c0.1,5.5,2.3,9.9,4.9,9.8h4.8L1268.1,447.7"/>
			<g>
				<path class="st492" d="M1274,444.7l-2.5,1.8c-1.3,0.1-1,1-1.9,2.6c-0.4,0.7-0.8,1.6-1.1,2.6c-0.6,1.9-0.9,4.1-0.9,6.5      c0,0.5,0,1,0.1,1.4l-5.3,0c0-0.4,0-0.7,0-1.1c0-0.1,0-0.2,0-0.3c0-0.8,0-1.5,0.1-2.3c0.4-6.2,3.2-11,6.3-11.2L1274,444.7z"/>
			</g>
			<path class="st488" d="M1273.8,444.7l-2.5,1.8c-1.1,0.1-1,0.8-1.7,2.2l-6.3,1.7c1.2-3.3,3.1-5.5,5.2-5.6L1273.8,444.7z"/>
		</g>
		<g>
			<path class="st493" d="M1282.4,447.7c-2.7,0.1-4.7,4.7-4.7,10.3c0.1,5.5,2.3,9.9,4.9,9.8h5c0,0-4-17.7-4-17.8     C1283.7,449.8,1282.4,447.7,1282.4,447.7"/>
			<g>
				<path class="st492" d="M1288.9,444.7l-2.5,1.8c-1.3,0.1-1,1-1.9,2.6c-0.4,0.7-0.8,1.6-1.1,2.6c-0.6,1.9-0.9,4.1-0.9,6.5      c0,0.5,0,1,0.1,1.4l-5.3,0c0-0.4,0-0.7,0-1.1c0-0.1,0-0.2,0-0.3c0-0.8,0-1.5,0.1-2.3c0.4-6.2,3.2-11,6.3-11.2L1288.9,444.7z"/>
			</g>
			<path class="st488" d="M1288.6,444.7l-2.5,1.8c-1.1,0.1-1,0.8-1.7,2.2l-6.3,1.7c1.2-3.3,3.1-5.5,5.2-5.6L1288.6,444.7z"/>
		</g>
		<g>
			<g>
				<g>
					<g>
						<path class="st493" d="M1277.4,448.7c-0.9-1.5-2.1-3.2-3.4-3.1c-1.3,0.1-3.2,1.9-4.1,3.4c-1.3,2.1-2,5.4-2,9        c0,0.5,0,1.8,0,2.3l1.3-0.1c0-0.5-0.1-1.8-0.1-2.3c-0.1-4.8,1.8-8.8,4.1-8.9c2.3-0.1,4.2,3.7,4.3,8.5c0,0.5,0,1,0,1.4l2-0.1        c0-0.5,0-0.9,0-1.4C1279.5,453.9,1278.7,450.7,1277.4,448.7z"/>
					</g>
				</g>
				<g>
					<path class="st481" d="M1278.4,457.5c-0.1-5.5-2.3-9.9-4.9-9.8c-2.7,0.1-4.7,4.7-4.7,10.3c0.1,5.5,2.3,9.9,4.9,9.8       C1276.4,467.7,1278.5,463.1,1278.4,457.5z"/>
					<path class="st494" d="M1273.7,465.3c-2,0.1-3.7-3.2-3.7-7.4c0-4.2,1.5-7.7,3.5-7.8c2-0.1,3.7,3.2,3.7,7.4       C1277.3,461.8,1275.7,465.2,1273.7,465.3z"/>
				</g>
				<g>
					<g>
						<path class="st495" d="M1276.3,457.6c0,0.6,0,1.1-0.1,1.6c-0.2,1.7-0.8,3.1-1.6,3.7c-0.3,0.2-0.5,0.3-0.8,0.3        c-0.3,0-0.6-0.1-0.8-0.2c-0.8-0.5-1.4-1.8-1.7-3.4c-0.1-0.5-0.1-1.1-0.1-1.6s0-1.1,0.1-1.7c0.2-1.7,0.9-3,1.6-3.6        c0.2-0.2,0.5-0.3,0.8-0.3c0.3,0,0.5,0.1,0.8,0.2c0.8,0.5,1.5,1.8,1.7,3.5C1276.3,456.6,1276.3,457.1,1276.3,457.6z"/>
					</g>
				</g>
				<g>
					<g class="st496">
						<path class="st497" d="M1273.6,457.6c0,0.5,0,0.9-0.1,1.4c-0.2,1.5-0.7,2.7-1.3,3.2c-0.2,0.2-0.4,0.3-0.6,0.3        s-0.4-0.1-0.6-0.2c-0.6-0.4-1.1-1.6-1.3-3c-0.1-0.5-0.1-0.9-0.1-1.4c0-0.5,0-1,0.1-1.4c0.2-1.5,0.7-2.7,1.3-3.1        c0.2-0.2,0.4-0.2,0.6-0.3s0.4,0.1,0.6,0.2c0.6,0.4,1.2,1.6,1.4,3.1C1273.6,456.7,1273.6,457.2,1273.6,457.6z"/>
					</g>
				</g>
				<path class="st498" d="M1272,457.7c0,0.1,0,0.3,0,0.4c-0.1,0.4-0.2,0.8-0.4,0.9c-0.1,0-0.1,0.1-0.2,0.1c-0.1,0-0.1,0-0.2-0.1      c-0.2-0.1-0.4-0.5-0.4-0.9c0-0.1,0-0.3,0-0.4c0-0.1,0-0.3,0-0.4c0.1-0.4,0.2-0.8,0.4-0.9c0.1,0,0.1-0.1,0.2-0.1s0.1,0,0.2,0.1      c0.2,0.1,0.4,0.5,0.4,0.9C1272,457.5,1272,457.6,1272,457.7z"/>
			</g>
			<path class="st499" d="M1280,455.2c-0.6-6.1-3.2-10.7-6.3-10.5c-3.1,0.2-5.6,5-6.1,11.2c-0.1,0.7-0.1,1.5-0.1,2.3     c0,0.5,0,0.9,0.1,1.4l0.8,0c0-0.5-0.1-0.9-0.1-1.4c0-3.6,0.7-6.9,2-9c0.9-1.6,2.1-2.5,3.3-2.6c1.3-0.1,2.4,0.8,3.4,2.2     c1.3,2,2.2,5.2,2.2,8.8c0,0.5,0,1,0,1.4l-0.6,0l0,0l1.5-0.1c0-0.5,0-0.9,0-1.4C1280.1,456.7,1280.1,455.9,1280,455.2z"/>
			<path class="st500" d="M1276.3,461.1L1276.3,461.1c-0.5,1.9-1.5,3.2-2.6,3.3c-1.6,0.1-3-2.5-3.2-5.9h0.3     C1271.4,457.3,1272.6,455.9,1276.3,461.1z"/>
			<path class="st501" d="M1273.5,451.2c-1.7,0.1-3.1,3.1-3.1,6.7c0,3.6,1.5,6.5,3.2,6.4s3.1-3.1,3.1-6.7     C1276.7,454,1275.3,451.1,1273.5,451.2z M1274.5,462.9c-0.3,0.2-0.5,0.3-0.8,0.3c-0.3,0-0.6-0.1-0.8-0.2     c-0.8-0.5-1.4-1.8-1.7-3.4c-0.1-0.5-0.1-1.1-0.1-1.6c0-0.6,0-1.1,0.1-1.7c0.2-1.7,0.9-3,1.6-3.6c0.2-0.2,0.5-0.3,0.8-0.3     c0.3,0,0.5,0.1,0.8,0.2c0.8,0.5,1.5,1.8,1.7,3.5c0.1,0.5,0.1,1,0.1,1.6c0,0.6,0,1.1-0.1,1.6     C1275.9,460.9,1275.3,462.3,1274.5,462.9z"/>
		</g>
		<polygon class="st488" points="1216.3,445.6 1211.4,445.6 1209.2,441.8 1218.5,441.8   "/>
		<path class="st488" d="M1220.9,443.3h-12.6l-0.7-1.6h14L1220.9,443.3z"/>
		<g>
			<g>
				<g>
					<g>
						<path class="st493" d="M1292,448.7c-0.9-1.5-2.1-3.2-3.4-3.1c-1.3,0.1-3.2,1.9-4.1,3.4c-1.3,2.1-2,5.4-2,9c0,0.5,0,1.8,0,2.3        l1.3-0.1c0-0.5-0.1-1.8-0.1-2.3c-0.1-4.8,1.8-8.8,4.1-8.9c2.3-0.1,4.2,3.7,4.3,8.5c0,0.5,0,1,0,1.4l2-0.1c0-0.5,0-0.9,0-1.4        C1294.1,453.9,1293.3,450.7,1292,448.7z"/>
					</g>
				</g>
				<g>
					<path class="st481" d="M1293,457.5c-0.1-5.5-2.3-9.9-4.9-9.8c-2.7,0.1-4.7,4.7-4.7,10.3c0.1,5.5,2.3,9.9,4.9,9.8       C1291,467.7,1293.1,463.1,1293,457.5z"/>
					<path class="st494" d="M1288.3,465.3c-2,0.1-3.7-3.2-3.7-7.4c0-4.2,1.5-7.7,3.5-7.8c2-0.1,3.7,3.2,3.7,7.4       C1291.9,461.8,1290.3,465.2,1288.3,465.3z"/>
				</g>
				<g>
					<g>
						<path class="st495" d="M1290.9,457.6c0,0.6,0,1.1-0.1,1.6c-0.2,1.7-0.8,3.1-1.6,3.7c-0.3,0.2-0.5,0.3-0.8,0.3        c-0.3,0-0.6-0.1-0.8-0.2c-0.8-0.5-1.4-1.8-1.7-3.4c-0.1-0.5-0.1-1.1-0.1-1.6s0-1.1,0.1-1.7c0.2-1.7,0.9-3,1.6-3.6        c0.2-0.2,0.5-0.3,0.8-0.3c0.3,0,0.5,0.1,0.8,0.2c0.8,0.5,1.5,1.8,1.7,3.5C1290.9,456.6,1290.9,457.1,1290.9,457.6z"/>
					</g>
				</g>
				<g>
					<g class="st496">
						<path class="st497" d="M1288.2,457.6c0,0.5,0,0.9-0.1,1.4c-0.2,1.5-0.7,2.7-1.3,3.2c-0.2,0.2-0.4,0.3-0.6,0.3        s-0.4-0.1-0.6-0.2c-0.6-0.4-1.1-1.6-1.3-3c-0.1-0.5-0.1-0.9-0.1-1.4c0-0.5,0-1,0.1-1.4c0.2-1.5,0.7-2.7,1.3-3.1        c0.2-0.2,0.4-0.2,0.6-0.3c0.2,0,0.4,0.1,0.6,0.2c0.6,0.4,1.2,1.6,1.4,3.1C1288.2,456.7,1288.2,457.2,1288.2,457.6z"/>
					</g>
				</g>
				<path class="st498" d="M1286.6,457.7c0,0.1,0,0.3,0,0.4c-0.1,0.4-0.2,0.8-0.4,0.9c-0.1,0-0.1,0.1-0.2,0.1s-0.1,0-0.2-0.1      c-0.2-0.1-0.4-0.5-0.4-0.9c0-0.1,0-0.3,0-0.4c0-0.1,0-0.3,0-0.4c0.1-0.4,0.2-0.8,0.4-0.9c0.1,0,0.1-0.1,0.2-0.1s0.1,0,0.2,0.1      c0.2,0.1,0.4,0.5,0.4,0.9C1286.6,457.5,1286.6,457.6,1286.6,457.7z"/>
			</g>
			<path class="st499" d="M1294.6,455.2c-0.6-6.1-3.2-10.7-6.3-10.5s-5.6,5-6.1,11.2c-0.1,0.7-0.1,1.5-0.1,2.3c0,0.5,0,0.9,0.1,1.4     l0.8,0c0-0.5-0.1-0.9-0.1-1.4c0-3.6,0.7-6.9,2-9c0.9-1.6,2.1-2.5,3.3-2.6c1.3-0.1,2.4,0.8,3.4,2.2c1.3,2,2.2,5.2,2.2,8.8     c0,0.5,0,1,0,1.4l-0.6,0l0,0l1.5-0.1c0-0.5,0-0.9,0-1.4C1294.7,456.7,1294.7,455.9,1294.6,455.2z"/>
			<path class="st500" d="M1290.9,461.1L1290.9,461.1c-0.5,1.9-1.5,3.2-2.6,3.3c-1.6,0.1-3-2.5-3.2-5.9h0.3     C1285.9,457.3,1286.8,456.4,1290.9,461.1z"/>
			<path class="st501" d="M1288.1,451.2c-1.7,0.1-3.1,3.1-3.1,6.7c0,3.6,1.5,6.5,3.2,6.4c1.7-0.1,3.1-3.1,3.1-6.7     C1291.3,454,1289.9,451.1,1288.1,451.2z M1289.1,462.9c-0.3,0.2-0.5,0.3-0.8,0.3c-0.3,0-0.6-0.1-0.8-0.2     c-0.8-0.5-1.4-1.8-1.7-3.4c-0.1-0.5-0.1-1.1-0.1-1.6c0-0.6,0-1.1,0.1-1.7c0.2-1.7,0.9-3,1.6-3.6c0.2-0.2,0.5-0.3,0.8-0.3     c0.3,0,0.5,0.1,0.8,0.2c0.8,0.5,1.5,1.8,1.7,3.5c0.1,0.5,0.1,1,0.1,1.6c0,0.6,0,1.1-0.1,1.6     C1290.5,460.9,1289.9,462.3,1289.1,462.9z"/>
		</g>
		<g>
			<g>
				<g>
					<g>
						<path class="st493" d="M1263,448.7c-0.9-1.5-2.1-3.2-3.4-3.1c-1.3,0.1-3.2,1.9-4.1,3.4c-1.3,2.1-2,5.4-2,9c0,0.5,0,1.8,0,2.3        l1.3-0.1c0-0.5-0.1-1.8-0.1-2.3c-0.1-4.8,1.8-8.8,4.1-8.9c2.3-0.1,4.2,3.7,4.3,8.5c0,0.5,0,1,0,1.4l2-0.1c0-0.5,0-0.9,0-1.4        C1265.2,453.9,1264.3,450.7,1263,448.7z"/>
					</g>
				</g>
				<g>
					<path class="st481" d="M1264,457.5c-0.1-5.5-2.3-9.9-4.9-9.8c-2.7,0.1-4.7,4.7-4.7,10.3c0.1,5.5,2.3,9.9,4.9,9.8       C1262,467.7,1264.1,463.1,1264,457.5z"/>
					<path class="st494" d="M1259.3,465.3c-2,0.1-3.7-3.2-3.7-7.4c0-4.2,1.5-7.7,3.5-7.8s3.7,3.2,3.7,7.4       C1262.9,461.8,1261.3,465.2,1259.3,465.3z"/>
				</g>
				<g>
					<g>
						<path class="st495" d="M1262,457.6c0,0.6,0,1.1-0.1,1.6c-0.2,1.7-0.8,3.1-1.6,3.7c-0.3,0.2-0.5,0.3-0.8,0.3        c-0.3,0-0.6-0.1-0.8-0.2c-0.8-0.5-1.4-1.8-1.7-3.4c-0.1-0.5-0.1-1.1-0.1-1.6s0-1.1,0.1-1.7c0.2-1.7,0.9-3,1.6-3.6        c0.2-0.2,0.5-0.3,0.8-0.3c0.3,0,0.5,0.1,0.8,0.2c0.8,0.5,1.5,1.8,1.7,3.5C1261.9,456.6,1262,457.1,1262,457.6z"/>
					</g>
				</g>
				<g>
					<g class="st496">
						<path class="st497" d="M1259.3,457.6c0,0.5,0,0.9-0.1,1.4c-0.2,1.5-0.7,2.7-1.3,3.2c-0.2,0.2-0.4,0.3-0.6,0.3        c-0.2,0-0.4-0.1-0.6-0.2c-0.6-0.4-1.1-1.6-1.3-3c-0.1-0.5-0.1-0.9-0.1-1.4s0-1,0.1-1.4c0.2-1.5,0.7-2.7,1.3-3.1        c0.2-0.2,0.4-0.2,0.6-0.3c0.2,0,0.4,0.1,0.6,0.2c0.6,0.4,1.2,1.6,1.4,3.1C1259.2,456.7,1259.2,457.2,1259.3,457.6z"/>
					</g>
				</g>
				<path class="st498" d="M1257.6,457.7c0,0.1,0,0.3,0,0.4c-0.1,0.4-0.2,0.8-0.4,0.9c-0.1,0-0.1,0.1-0.2,0.1s-0.1,0-0.2-0.1      c-0.2-0.1-0.4-0.5-0.4-0.9c0-0.1,0-0.3,0-0.4c0-0.1,0-0.3,0-0.4c0.1-0.4,0.2-0.8,0.4-0.9c0.1,0,0.1-0.1,0.2-0.1      c0.1,0,0.1,0,0.2,0.1c0.2,0.1,0.4,0.5,0.4,0.9C1257.6,457.5,1257.6,457.6,1257.6,457.7z"/>
			</g>
			<path class="st499" d="M1265.7,455.2c-0.6-6.1-3.2-10.7-6.3-10.5c-3.1,0.2-5.6,5-6.1,11.2c-0.1,0.7-0.1,1.5-0.1,2.3     c0,0.5,0,0.9,0.1,1.4l0.8,0c0-0.5-0.1-0.9-0.1-1.4c0-3.6,0.7-6.9,2-9c0.9-1.6,2.1-2.5,3.3-2.6c1.3-0.1,2.4,0.8,3.4,2.2     c1.3,2,2.2,5.2,2.2,8.8c0,0.5,0,1,0,1.4l-0.6,0l0,0l1.5-0.1c0-0.5,0-0.9,0-1.4C1265.8,456.7,1265.7,455.9,1265.7,455.2z"/>
			<path class="st500" d="M1262,461.1L1262,461.1c-0.5,1.9-1.5,3.2-2.6,3.3c-1.6,0.1-3-2.5-3.2-5.9h0.3     C1257,457.3,1258,456.1,1262,461.1z"/>
			<path class="st501" d="M1259.2,451.2c-1.7,0.1-3.1,3.1-3.1,6.7c0,3.6,1.5,6.5,3.2,6.4c1.7-0.1,3.1-3.1,3.1-6.7     C1262.3,454,1260.9,451.1,1259.2,451.2z M1260.2,462.9c-0.3,0.2-0.5,0.3-0.8,0.3c-0.3,0-0.6-0.1-0.8-0.2     c-0.8-0.5-1.4-1.8-1.7-3.4c-0.1-0.5-0.1-1.1-0.1-1.6c0-0.6,0-1.1,0.1-1.7c0.2-1.7,0.9-3,1.6-3.6c0.2-0.2,0.5-0.3,0.8-0.3     c0.3,0,0.5,0.1,0.8,0.2c0.8,0.5,1.5,1.8,1.7,3.5c0.1,0.5,0.1,1,0.1,1.6c0,0.6,0,1.1-0.1,1.6     C1261.6,460.9,1261,462.3,1260.2,462.9z"/>
		</g>
		<path class="st492" d="M1209.1,442.1h-28.6v-2.5h28.6V442.1z"/>
		<path class="st492" d="M1300.7,435.1h-91.9v5.8h91.9V435.1z"/>
		<polygon class="st488" points="1178,435.1 1178,439.6 1177.7,439.6 1177.7,442.1 1206.3,442.1 1206.3,440.9 1206.3,439.6     1206.3,435.1   "/>
		<path class="st492" d="M1302,442.1h-93.2v-2.5h93.2V442.1z"/>
	</g>
	<g style="clip-path:url(#SVGID_1_);">
		<g>
			<polygon class="st481" points="1222.6,444.4 1201.5,444.4 1199.7,448.8 1223.7,448.8    "/>
		</g>
		<g>
			<path class="st481" d="M1153.3,447.7c-2.7,0.1-4.7,4.7-4.7,10.3c0.1,5.5,2.3,9.9,4.9,9.8h4.8l-2.8-12.7L1153.3,447.7z"/>
			<g>
				<g>
					<g>
						<path class="st481" d="M1163.7,457.5c-0.1-5.5-2.3-9.9-4.9-9.8c-2.7,0.1-4.7,4.7-4.7,10.3c0.1,5.5,2.3,9.9,4.9,9.8        C1161.6,467.7,1163.7,463.1,1163.7,457.5z"/>
					</g>
				</g>
			</g>
		</g>
		<g>
			<path class="st481" d="M1183.2,447.7c-2.7,0.1-4.7,4.7-4.7,10.3c0.1,5.5,2.3,9.9,4.9,9.8h4.8l-2.8-12.7L1183.2,447.7z"/>
			<g>
				<g>
					<g>
						<path class="st481" d="M1193,457.5c-0.1-5.5-2.3-9.9-4.9-9.8c-2.7,0.1-4.7,4.7-4.7,10.3c0.1,5.5,2.3,9.9,4.9,9.8        C1190.9,467.7,1193,463.1,1193,457.5z"/>
					</g>
				</g>
			</g>
		</g>
		<path class="st493" d="M1221.4,447.7c-2.7,0.1-4.7,4.7-4.7,10.3c0.1,5.5,2.3,9.9,4.9,9.8h4.6L1221.4,447.7z"/>
		<path class="st493" d="M1191,447.7c-2.7,0.1-4.7,4.7-4.7,10.3c0.1,5.5,2.3,9.9,4.9,9.8h4.5L1191,447.7"/>
		<g>
			<path class="st492" d="M1206,450.8c0,1.2,0.7,2.2,1.5,2.2s1.5-0.3,1.5-0.8s0-1.8,0-3v-1.9c0-1.2-0.7-2.2-1.5-2.2s-1.5,1-1.5,2.2     V450.8z"/>
		</g>
		<g>
			<g>
				<path class="st493" d="M1146.2,450.4c-1.4,0-2.5,1.1-2.5,2.5v6.3c0,1.4,1.1,2.5,2.5,2.5h46c1.4,0,2.5-1.1,2.5-2.5v-6.3      c0-1.4-1.1-2.5-2.5-2.5H1146.2z"/>
			</g>
			<path class="st502" d="M1202.6,414.8v-15.1h-40c0,0-14.5,0.7-14.5,10.3c0,5.8,5.5,6.8,5.5,6.8L1202.6,414.8z"/>
			<path class="st502" d="M1184.3,409.9l4.1,39H1145l-1.2-1.6c0-0.8,0-1.3,0-3.6c0-2.4,0.1-5.1,0.3-8c0-0.2,0.9,0.2,1,0l2.2-15.4     l-1.7-2c0.4-4.5,2-7.2,3.3-7.5C1152.5,409.8,1171.8,409.9,1184.3,409.9z"/>
			<path class="st481" d="M1187.4,421.5l-1.7,14.9H1144c0-0.2,0-0.4,0-0.7l0.4-4.6l0.6-7.1l0.3-3l0,0c0,0,0.5,0,0.7,0     c0.2,0,0.3-0.1,0.3,0.5H1187.4z"/>
			<path class="st503" d="M1187.5,420.7l-1.7,14.9H1144c0-0.2,0-0.4,0-0.7l0.4-4.6l0.6-7.1l0.3-3l0,0c0,0,0.5,0,0.7,0     s0.3-0.1,0.3,0.5H1187.5z"/>
			<path class="st504" d="M1155.4,420.7c-1.3,3-4.5,10.6-6.3,14.9h-5.1c0-0.2,0-0.4,0-0.7l0.4-4.6l0.6-7.1l0.3-3l0,0     c0,0,0.5,0,0.7,0s0.3-0.1,0.3,0.5H1155.4z"/>
			<path class="st505" d="M1186.6,420.7l-0.6,2.5h-40.9l0.3-3l0,0c0,0,0.5,0,0.7,0s0.3-0.1,0.3,0.5H1186.6z"/>
			<g class="st496">
				<path class="st506" d="M1179,420.2c2.2,0,2.3,0.7,0.3,1.5l-16.3,6.6c-2,0.8-4.4,1.8-5.2,2.1c-0.9,0.3-1.8,0.6-2,0.7      s-0.4-1.6-0.4-3.8v-3.1c0-2.2,1.8-4,4-4H1179z"/>
			</g>
			<g class="st496">
				<path class="st506" d="M1150.7,420.2c1.4,0,2.6,1.8,2.6,4v3.9c0,2.2-1.1,4.4-2.4,4.8c-1.3,0.5-2.8,1-3.2,1.2      c-0.5,0.2-0.7-1.4-0.5-3.6c0.2-2.1,0.5-5.3,0.6-7.1C1148,421.6,1149.3,420.2,1150.7,420.2z"/>
			</g>
			<g>
				<path class="st502" d="M1145.6,439.3c-1.4,0-2.5,1.1-2.5,2.5v3c0,1.4,0.6,2.5,1.3,2.5c0.7,0,2.3-0.3,3.5-0.7      c1.2-0.4,2.2-1.8,2.2-3.1v-1.6c0-1.4-1.1-2.5-2.5-2.5H1145.6z"/>
			</g>
			<path class="st481" d="M1188.5,415.3v0.7l-1.8,1.7l-0.8,3.3h-41.9c0.2-2.3,0.7-4.5,1-6.2C1145,415.5,1188.5,415.3,1188.5,415.3z"/>
			<g>
				<polygon class="st481" points="1185.4,448.8 1189.6,448.8 1189.6,445.4 1184,447.3 1143.8,447.3 1143.8,448.8 1149,448.8           "/>
			</g>
			<g>
				<path class="st502" d="M1145.4,448.8c-1.4,0-2.5,1.1-2.5,2.5v6.3c0,1.4,1.1,2.5,2.5,2.5h37.1c1.4,0,2.5-1.1,2.5-2.5v-6.3      c0-1.4-1.1-2.5-2.5-2.5H1145.4z"/>
			</g>
			<g>
				<ellipse class="st484" cx="1144.9" cy="453.5" rx="2.3" ry="2.4"/>
			</g>
			<path class="st502" d="M1202.6,409.6v8.2h-58.1c0.5-5.4,0.4-8.2,2.7-8.2C1151.8,409.6,1187.6,409.6,1202.6,409.6z"/>
		</g>
		<g>
			<path class="st507" d="M1203.7,414.8v-15.1h-0.9c0,0-14.5,0.7-14.5,10.3c0,5.8,5.5,6.8,5.5,6.8L1203.7,414.8z"/>
			<path class="st502" d="M1203.7,406l0,8.2h-15.9c0.5-5.4,0.4-8.2,2.7-8.2C1195.2,406,1188.8,406,1203.7,406z"/>
			<path class="st508" d="M1203.7,407.6l0,7.1H1189c0.4-4.7,0.2-7.1,2.2-7.1C1195.9,407.6,1190,407.6,1203.7,407.6z"/>
			<path class="st507" d="M1199.4,443.2h4.4v-33.3c-0.4,0-4,0-4.4,0V443.2z"/>
			<g>
				<rect x="1186.7" y="442.1" class="st25" width="3.4" height="4.3"/>
			</g>
			<g>
				<polygon class="st492" points="1229.3,444.4 1219,444.4 1217.2,448.8 1207.1,448.8 1184.7,448.8 1185.8,459.2 1230.3,459.2       1230.3,448.8     "/>
			</g>
			<polygon class="st481" points="1214.9,457.5 1216.9,457.5 1217.4,455.1 1217.4,448.8 1214.9,448.8    "/>
			<path class="st507" d="M1200.9,409.9v35.4l-15.7,3.5l-1.2-1.6c0-0.8,0-1.3,0-3.6c0-2.4,0.1-5.1,0.3-8c0-0.2,0-0.4,0-0.7l1.8-14.8     l-0.3-2c0.4-4.5,2-7.2,3.3-7.5C1192.8,409.8,1188.5,409.9,1200.9,409.9z"/>
			<path class="st493" d="M1186.5,422.1c-0.1,1.1-0.3,3.1-0.5,5.2c-0.3,3-0.6,6.3-0.7,7.9c-0.1,0.6-0.2,1-0.5,1.1     c-0.3,0.1-0.7,0.3-0.7,0.3c0-0.2,0-0.4,0-0.7l0.4-4.6l0.9-10.1l0,0c0,0,0.5,0,0.7,0S1186.6,421.4,1186.5,422.1z"/>
			<path class="st505" d="M1186.6,421.2c-0.1,1.1-0.3,3.1-0.5,5.2c-0.3,3-0.6,6.3-0.7,7.9c-0.1,0.6-0.2,1-0.5,1.1     c-0.3,0.1-0.7,0.3-0.7,0.3c0-0.2,0-0.4,0-0.7l0.4-4.6l0.9-10.1l0,0c0,0,0.5,0,0.7,0S1186.6,420.6,1186.6,421.2z"/>
			<g>
				<path class="st507" d="M1185.8,439.3c-1.4,0-2.5,1.1-2.5,2.5v3c0,1.4,0.6,2.5,1.3,2.5c0.7,0,2.3-0.3,3.5-0.7      c1.2-0.4,2.2-1.8,2.2-3.1v-1.6c0-1.4-1.1-2.5-2.5-2.5H1185.8z"/>
			</g>
			<path class="st493" d="M1201.1,416v-0.7c0,0-15.9,0.2-15.8-0.5c-0.2,1.7-0.8,3.9-1,6.2l3.3,0l0.8-3.3L1201.1,416z"/>
			<g>
				<path class="st507" d="M1186,447.3c0-3.5,0-6.3,0-6.3c0-2.2,0.2-5.8,0.3-7.9l0.9-11c0.2-2.2,2.1-4,4.3-4h5.3c2.2,0,4,1.8,4,4      v24.2"/>
				<path class="st509" d="M1186,447.3c0-3.5,0-6.3,0-6.3c0-2.2,0.2-5.8,0.3-7.9l0.9-11c0.2-2.2,2.1-4,4.3-4h5.3c2.2,0,4,1.8,4,4      v24.2"/>
			</g>
			<g>
				<path class="st510" d="M1191.1,435.5c1.4-0.5,2.6-0.2,2.6,0.8c0,0.9-0.6,1.9-1.3,2.2c-0.7,0.3-1.3,1.4-1.3,2.6      c0,1.1-0.9,2.4-2,2.8c-1.1,0.4-2-0.6-2-2.2V440c0-1.6,0.3-3.1,0.8-3.3C1188.2,436.6,1189.7,436.1,1191.1,435.5z"/>
			</g>
			<g>
				<path class="st505" d="M1197.7,420.2c1.1,0,2,1.8,2,4v1.7c0,2.2-0.7,4.2-1.6,4.5c-0.9,0.3-1.8,0.6-2,0.7      c-0.2,0.1-0.4-1.6-0.4-3.8v-3.1C1195.7,421.9,1196.6,420.2,1197.7,420.2z"/>
			</g>
			<g>
				<path class="st505" d="M1191.1,420.2c1.4,0,2.6,1.8,2.6,4v3.9c0,2.2-1.1,4.4-2.4,4.8c-1.3,0.5-2.8,1-3.2,1.2s-0.7-1.4-0.5-3.6      s0.5-5.3,0.6-7.1C1188.3,421.6,1189.6,420.2,1191.1,420.2z"/>
			</g>
			<line class="st509" x1="1194.7" y1="418.2" x2="1194.7" y2="443.2"/>
			<g>
				<g>
					<path class="st511" d="M1195.1,442.4c-1.8,0-3.4,1.4-4.7,4c-0.4,0.7-0.7,1.6-1,2.4h0.8c0.2-0.5,0.4-1,0.6-1.5       c1.1-2.3,2.6-4,4.2-4h8.7v-0.9H1195.1z"/>
				</g>
			</g>
			<g>
				<g>
					<polygon class="st481" points="1197.9,448.8 1202.2,448.8 1202.2,445.4 1193.8,447.7 1191.1,447.3 1184,447.3 1184,448.8        1189.3,448.8      "/>
				</g>
				
					<image style="overflow:visible;" width="56" height="44" xlink:href="4328FB9B.png" transform="matrix(0.24 0 0 0.24 1189.12 443.2)">
				</image>
			</g>
			<g>
				<polygon class="st481" points="1230.3,456.6 1230.3,459.2 1192.2,459.2 1184.1,456.6     "/>
			</g>
			<path class="st481" d="M1201.3,455.5c-0.2-2.6-0.8-4.9-1.6-6.7h-2.4c1.3,1.3,2.2,3.8,2.5,6.7c0.1,0.7,0.1,1.5,0.1,2.3     c0,0.3,0,0.6,0,0.9c0,0.2,0,0.3,0,0.5h1.5c0-0.1,0-0.2,0-0.4c0-0.3,0-0.7,0-1C1201.4,457,1201.4,456.2,1201.3,455.5z"/>
			<g>
				<path class="st510" d="M1185.7,448.8c-1.4,0-2.5,1.1-2.5,2.5v6.3c0,1.4,1.1,2.5,2.5,2.5h5.6c1.4,0,2.5-1.1,2.5-2.5v-6.3      c0-1.4-1.1-2.5-2.5-2.5H1185.7z"/>
			</g>
			<path class="st481" d="M1188.4,458.6c0,0.4,0,0.7,0,1.1c0,0.1,0,0.5,0,0.6l14.3,0c0-0.1,0-1.5,0-1.5s-1.6-3-2.7-10.1l-10,0     c-0.9,1.9-1.4,4.8-1.6,7.5C1188.5,457,1188.4,457.8,1188.4,458.6z"/>
			<g>
				<ellipse class="st514" cx="1183.9" cy="453.5" rx="1.1" ry="2.4"/>
			</g>
			<path class="st515" d="M1192.6,424.1v8.2l-4.6,1.7c-0.5,0.2-0.8-0.5-0.7-1.4l0.9-10.2h3.5     C1192.3,422.4,1192.6,423.2,1192.6,424.1z"/>
			<g class="st496">
				<path class="st506" d="M1189.4,426.9l2.5-5.3h0.4c0,0.1,0,0.2,0,0.3v0.3l-3.1,7.1L1189.4,426.9z"/>
			</g>
			<path class="st507" d="M1203.7,409.6c-14.9,0-11.7,0-16.4,0c-2.2,0-2.2,2.8-2.7,8.2l19,0V409.6z"/>
			<g>
				<path class="st510" d="M1200,433.7c0,0.9-1,2.1-2.1,2.6c-1.2,0.5-2.1,0.1-2.1-0.8c0-0.9,1-2.1,2.1-2.6      C1199,432.4,1200,432.7,1200,433.7z"/>
			</g>
			<g>
				<path class="st516" d="M1197.2,423.9l1-2.1c0,0,0,0.1,0,0.2v1.4l-1,2.3V423.9z"/>
			</g>
		</g>
		<g>
			<g>
				<g>
					<g>
						<path class="st493" d="M1230.3,448.7c-0.9-1.5-2.1-3.2-3.4-3.1c-1.3,0.1-3.2,1.9-4.1,3.4c-1.3,2.1-2,5.4-2,9        c0,0.5,0,1.8,0,2.3l1.3-0.1c0-0.5-0.1-1.8-0.1-2.3c-0.1-4.8,1.8-8.8,4.1-8.9c2.3-0.1,4.2,3.7,4.3,8.5c0,0.5,0,1,0,1.4l2-0.1        c0-0.5,0-0.9,0-1.4C1232.5,453.9,1231.6,450.7,1230.3,448.7z"/>
					</g>
				</g>
				<g>
					<path class="st481" d="M1231.4,457.5c-0.1-5.5-2.3-9.9-4.9-9.8c-2.7,0.1-4.7,4.7-4.7,10.3c0.1,5.5,2.3,9.9,4.9,9.8       C1229.4,467.7,1231.5,463.1,1231.4,457.5z"/>
					<path class="st494" d="M1226.7,465.3c-2,0.1-3.7-3.2-3.7-7.4c0-4.2,1.5-7.7,3.5-7.8s3.7,3.2,3.7,7.4       C1230.3,461.8,1228.7,465.2,1226.7,465.3z"/>
					<path class="st517" d="M1226.7,464.3c-1.7,0.1-3.2-2.8-3.2-6.4c0-3.6,1.3-6.6,3.1-6.7c1.7-0.1,3.2,2.8,3.2,6.4       C1229.8,461.2,1228.4,464.2,1226.7,464.3z"/>
				</g>
				<g>
					<g>
						<path class="st518" d="M1229.2,457.6c0,0.6,0,1.1-0.1,1.6c-0.2,1.7-0.8,3.1-1.6,3.7c-0.3,0.2-0.5,0.3-0.8,0.3        c-0.3,0-0.6-0.1-0.8-0.2c-0.8-0.5-1.4-1.8-1.7-3.4c-0.1-0.5-0.1-1.1-0.1-1.6c0-0.6,0-1.1,0.1-1.7c0.2-1.7,0.9-3,1.6-3.6        c0.2-0.2,0.5-0.3,0.8-0.3c0.3,0,0.5,0.1,0.8,0.2c0.8,0.5,1.5,1.8,1.7,3.5C1229.2,456.5,1229.2,457.1,1229.2,457.6z"/>
					</g>
				</g>
				<path class="st519" d="M1227.4,452.6c-0.2,0.6-0.5,0.9-0.8,1c-0.3,0-0.6-0.4-0.8-1c0.2-0.2,0.5-0.3,0.8-0.3      C1226.9,452.3,1227.2,452.4,1227.4,452.6z"/>
				<path class="st519" d="M1227.5,462.9c-0.3,0.2-0.5,0.3-0.8,0.3c-0.3,0-0.6-0.1-0.8-0.2c0.1-0.6,0.4-1,0.8-1.1      S1227.4,462.3,1227.5,462.9z"/>
				<path class="st519" d="M1229.2,457.6c0,0.6,0,1.1-0.1,1.6c-0.2-0.3-0.4-0.9-0.4-1.6s0.1-1.3,0.4-1.6      C1229.2,456.5,1229.2,457.1,1229.2,457.6z"/>
				<path class="st519" d="M1224.6,457.9c0,0.7-0.2,1.3-0.4,1.7c-0.1-0.5-0.1-1.1-0.1-1.6c0-0.6,0-1.1,0.1-1.7      C1224.4,456.6,1224.6,457.2,1224.6,457.9z"/>
				<path class="st517" d="M1229,457.7c0,0.3,0,0.7-0.1,1c-0.1,1-0.5,1.9-1,2.2c-0.2,0.1-0.3,0.2-0.5,0.2c-0.2,0-0.3,0-0.5-0.1      c-0.5-0.3-0.9-1.1-1-2.1c-0.1-0.3-0.1-0.6-0.1-1c0-0.3,0-0.7,0.1-1c0.1-1,0.5-1.8,1-2.2c0.1-0.1,0.3-0.2,0.5-0.2      c0.2,0,0.3,0,0.5,0.1c0.5,0.3,0.9,1.1,1.1,2.1C1229,457,1229,457.3,1229,457.7z"/>
				<path class="st519" d="M1228.1,457.7c0,0.1,0,0.3,0,0.4c-0.1,0.4-0.2,0.8-0.4,0.9c-0.1,0-0.1,0.1-0.2,0.1s-0.1,0-0.2-0.1      c-0.2-0.1-0.4-0.5-0.4-0.9c0-0.1,0-0.3,0-0.4s0-0.3,0-0.4c0.1-0.4,0.2-0.8,0.4-0.9c0.1,0,0.1-0.1,0.2-0.1c0.1,0,0.1,0,0.2,0.1      c0.2,0.1,0.4,0.5,0.4,0.9C1228.1,457.5,1228.1,457.6,1228.1,457.7z"/>
				<path class="st494" d="M1229.1,456.1c-0.3-1.7-0.9-3-1.7-3.5c-0.3-0.2-0.5-0.2-0.8-0.2c-0.3,0-0.5,0.1-0.8,0.3      c-0.8,0.6-1.4,1.9-1.6,3.6c-0.1,0.5-0.1,1.1-0.1,1.7v0l0.5,0v0c0-0.5,0-0.9,0.1-1.3c0.2-1.4,0.7-2.5,1.3-2.9      c0.2-0.1,0.4-0.2,0.6-0.2c0.2,0,0.4,0,0.6,0.2c0.7,0.4,1.2,1.5,1.4,2.8c0.1,0.4,0.1,0.8,0.1,1.3l0,0l0.5,0v0      C1229.2,457.1,1229.2,456.5,1229.1,456.1z"/>
			</g>
			<path class="st499" d="M1232.4,455.2c-0.6-6.1-3.2-10.7-6.3-10.5s-5.6,5-6.1,11.2c-0.1,0.7-0.1,1.5-0.1,2.3c0,0.5,0,0.9,0.1,1.4     l0.8,0c0-0.5-0.1-0.9-0.1-1.4c0-3.6,0.7-6.9,2-9c0.9-1.6,2.1-2.5,3.3-2.6c1.3-0.1,2.4,0.8,3.4,2.2c1.3,2,2.2,5.2,2.2,8.8     c0,0.5,0,1,0,1.4l-0.6,0l0,0l1.5-0.1c0-0.5,0-0.9,0-1.4C1232.5,456.7,1232.5,455.9,1232.4,455.2z"/>
		</g>
		<g>
			<path class="st484" d="M1179.9,451.1c-1.4,0-2.5,1.1-2.5,2.4s1.1,2.4,2.5,2.4h0.9c1.4,0,2.5-1.1,2.5-2.4s-1.1-2.4-2.5-2.4H1179.9     z"/>
		</g>
		<g>
			<path class="st481" d="M1152,451.5c-1.8,0-3.1,1.1-2.9,2.5c0.2,1.4,1.8,2.5,3.6,2.5h19.1c1.8,0,3.4-1.1,3.6-2.5s-1.1-2.5-2.9-2.5     H1152z"/>
		</g>
		<g>
			<path class="st481" d="M1151.1,440.6c-1.8,0-3.1,1.2-2.8,2.7c0.2,1.5,1.9,2.7,3.7,2.7h21.2c1.8,0,3.5-1.2,3.7-2.7     s-1.1-2.7-2.9-2.7H1151.1z"/>
		</g>
		<polygon class="st492" points="1154.3,417.7 1152.4,421 1147.8,421 1149.6,417.7   "/>
		<g>
			<g>
				<path class="st481" d="M1206.6,457.3c0,0.6-0.5,1-1,1h-0.9c-0.6,0-1-0.5-1-1v-10c0-0.6,0.5-1,1-1h0.9c0.6,0,1,0.5,1,1V457.3z"/>
			</g>
			<g>
				<path class="st481" d="M1215.5,457.3c0,0.6-0.5,1-1,1h-0.9c-0.6,0-1-0.5-1-1v-10c0-0.6,0.5-1,1-1h0.9c0.6,0,1,0.5,1,1V457.3z"/>
			</g>
			<g>
				<g>
					<g>
						<g>
							<path class="st520" d="M1216.5,453.5c0,2.3-1.8,4.1-4.1,4.1h-5.2c-2.3,0-4.1-1.8-4.1-4.1V450c0-2.3,1.8-4.1,4.1-4.1h5.2         c2.3,0,4.1,1.8,4.1,4.1V453.5z"/>
						</g>
						<g class="st496">
							<path class="st25" d="M1216.5,448.1c0,1.2-1.8,2.2-4.1,2.2h-3c-2.3,0-4.1-1-4.1-2.2c0-1.2,1.8-2.2,4.1-2.2h3         C1214.7,445.9,1216.5,446.9,1216.5,448.1z"/>
						</g>
						<path class="st521" d="M1216.5,454.3v1.3c0,1.1-0.4,1.9-0.8,1.9H1204c-0.4,0-0.8-0.9-0.8-1.9v-1.3c0,1.1,0.4,1.9,0.8,1.9h11.8        C1216.2,456.3,1216.5,455.4,1216.5,454.3z"/>
					</g>
				</g>
			</g>
			<g>
				<path class="st521" d="M1205.4,453.5c0,2.3-0.9,4.1-1.9,4.1c-1.1,0-1.9-1.8-1.9-4.1V450c0-2.3,0.9-4.1,1.9-4.1      c1.1,0,1.9,1.8,1.9,4.1V453.5z"/>
			</g>
		</g>
		<g>
			<path class="st492" d="M1200.6,453.4c0.3,1.8,1.2,3.2,2,3.2s1.5-0.3,1.5-0.8c0-0.4,0-2.2,0-3.9s-1-3.1-2.2-3.1     c-1.2,0-1.9,1.5-1.6,3.2L1200.6,453.4z"/>
		</g>
		<path class="st502" d="M1202.6,409.6v8.2h-58.1c0.2-1.7,0.3-3.2,0.4-4.4c0.3-2.5,0.7-3.8,2.3-3.8H1202.6z"/>
		<path class="st522" d="M1188.4,409.6c-1.3,0-1.8,0.9-2.1,2.7c-0.1,0.3-0.2,1-0.7,1s-40.7,0-40.7,0c0.3-2.5,0.7-3.8,2.3-3.8H1188.4    z"/>
	</g>
	<g style="clip-path:url(#SVGID_1_);">
		<path class="st520" d="M1250.4,453.5c0,2.3-1.8,4.1-4.1,4.1h-5.2c-2.3,0-4.1-1.8-4.1-4.1V450c0-2.3,1.8-4.1,4.1-4.1h5.2    c2.3,0,4.1,1.8,4.1,4.1V453.5z"/>
	</g>
	<g style="opacity:0.6;clip-path:url(#SVGID_1_);">
		<path class="st25" d="M1250.4,448.1c0,1.2-1.8,2.2-4.1,2.2h-3c-2.3,0-4.1-1-4.1-2.2c0-1.2,1.8-2.2,4.1-2.2h3    C1248.5,445.8,1250.4,446.8,1250.4,448.1z"/>
	</g>
	<path style="clip-path:url(#SVGID_1_);fill:#83A3B7;" d="M1250.4,454.3v1.3c0,1.1-0.4,1.9-0.8,1.9h-11.8c-0.4,0-0.8-0.9-0.8-1.9   v-1.3c0,1.1,0.4,1.9,0.8,1.9h11.8C1250,456.3,1250.4,455.4,1250.4,454.3z"/>
	<g style="clip-path:url(#SVGID_1_);">
		<path class="st521" d="M1239.2,453.5c0,2.3-1,4.1-2.2,4.1c-1.2,0-2.2-1.8-2.2-4.1V450c0-2.3,1-4.1,2.2-4.1c1.2,0,2.2,1.8,2.2,4.1    V453.5z"/>
	</g>
	<g style="clip-path:url(#SVGID_1_);">
		<path class="st492" d="M1233.5,451.3c0,1.8,1.1,3.3,2.4,3.3c1.3,0,2.4-0.3,2.4-0.8s0-2.3,0-4.1v-4.2c0-1.8-1.1-3.3-2.4-3.3    c-1.3,0-2.4,1.5-2.4,3.3V451.3z"/>
	</g>
	<g style="clip-path:url(#SVGID_1_);">
		<path class="st488" d="M1233.3,442.1v4.4c0,1.8,1.1,3.3,2.5,3.3s2.5-0.3,2.5-0.8c0-0.4,0-2.1,0-3.8s0-3,0-3"/>
	</g>
	<g style="clip-path:url(#SVGID_1_);">
		<g>
			<g>
				<g>
					<path class="st493" d="M1200,448.7c-0.9-1.5-2.1-3.2-3.4-3.1c-1.3,0.1-3.2,1.9-4.1,3.4c-1.3,2.1-2,5.4-2,9c0,0.5,0,1.8,0,2.3       l1.3-0.1c0-0.5-0.1-1.8-0.1-2.3c-0.1-4.8,1.8-8.8,4.1-8.9c2.3-0.1,4.2,3.7,4.3,8.5c0,0.5,0,1,0,1.4l2-0.1c0-0.5,0-0.9,0-1.4       C1202.2,453.9,1201.3,450.7,1200,448.7z"/>
				</g>
			</g>
			<g>
				<path class="st481" d="M1201.1,457.5c-0.1-5.5-2.3-9.9-4.9-9.8c-2.7,0.1-4.7,4.7-4.7,10.3c0.1,5.5,2.3,9.9,4.9,9.8      C1199,467.7,1201.1,463.1,1201.1,457.5z"/>
				<path class="st494" d="M1196.4,465.3c-2,0.1-3.7-3.2-3.7-7.4c0-4.2,1.5-7.7,3.5-7.8c2-0.1,3.7,3.2,3.7,7.4      C1200,461.8,1198.4,465.2,1196.4,465.3z"/>
				<path class="st517" d="M1196.4,464.3c-1.7,0.1-3.2-2.8-3.2-6.4c0-3.6,1.3-6.6,3.1-6.7c1.7-0.1,3.2,2.8,3.2,6.4      C1199.5,461.2,1198.1,464.2,1196.4,464.3z"/>
			</g>
			<g>
				<g>
					<path class="st518" d="M1198.9,457.6c0,0.6,0,1.1-0.1,1.6c-0.2,1.7-0.8,3.1-1.6,3.7c-0.3,0.2-0.5,0.3-0.8,0.3       c-0.3,0-0.6-0.1-0.8-0.2c-0.8-0.5-1.4-1.8-1.7-3.4c-0.1-0.5-0.1-1.1-0.1-1.6c0-0.6,0-1.1,0.1-1.7c0.2-1.7,0.9-3,1.6-3.6       c0.2-0.2,0.5-0.3,0.8-0.3c0.3,0,0.5,0.1,0.8,0.2c0.8,0.5,1.5,1.8,1.7,3.5C1198.9,456.5,1198.9,457.1,1198.9,457.6z"/>
				</g>
			</g>
			<path class="st519" d="M1197.1,452.6c-0.2,0.6-0.5,0.9-0.8,1c-0.3,0-0.6-0.4-0.8-1c0.2-0.2,0.5-0.3,0.8-0.3     C1196.6,452.3,1196.8,452.4,1197.1,452.6z"/>
			<path class="st519" d="M1197.2,462.9c-0.3,0.2-0.5,0.3-0.8,0.3c-0.3,0-0.6-0.1-0.8-0.2c0.1-0.6,0.4-1,0.8-1.1     S1197,462.3,1197.2,462.9z"/>
			<path class="st519" d="M1198.9,457.6c0,0.6,0,1.1-0.1,1.6c-0.2-0.3-0.4-0.9-0.4-1.6c0-0.7,0.1-1.3,0.4-1.6     C1198.9,456.5,1198.9,457.1,1198.9,457.6z"/>
			<path class="st519" d="M1194.3,457.9c0,0.7-0.2,1.3-0.4,1.7c-0.1-0.5-0.1-1.1-0.1-1.6c0-0.6,0-1.1,0.1-1.7     C1194.1,456.6,1194.3,457.2,1194.3,457.9z"/>
			<path class="st517" d="M1198.7,457.7c0,0.3,0,0.7-0.1,1c-0.1,1-0.5,1.9-1,2.2c-0.2,0.1-0.3,0.2-0.5,0.2c-0.2,0-0.3,0-0.5-0.1     c-0.5-0.3-0.9-1.1-1-2.1c-0.1-0.3-0.1-0.6-0.1-1c0-0.3,0-0.7,0.1-1c0.1-1,0.5-1.8,1-2.2c0.1-0.1,0.3-0.2,0.5-0.2s0.3,0,0.5,0.1     c0.5,0.3,0.9,1.1,1.1,2.1C1198.7,457,1198.7,457.3,1198.7,457.7z"/>
			<path class="st519" d="M1197.8,457.7c0,0.1,0,0.3,0,0.4c-0.1,0.4-0.2,0.8-0.4,0.9c-0.1,0-0.1,0.1-0.2,0.1c-0.1,0-0.1,0-0.2-0.1     c-0.2-0.1-0.4-0.5-0.4-0.9c0-0.1,0-0.3,0-0.4s0-0.3,0-0.4c0.1-0.4,0.2-0.8,0.4-0.9c0.1,0,0.1-0.1,0.2-0.1c0.1,0,0.1,0,0.2,0.1     c0.2,0.1,0.4,0.5,0.4,0.9C1197.8,457.5,1197.8,457.6,1197.8,457.7z"/>
			<path class="st494" d="M1198.8,456.1c-0.3-1.7-0.9-3-1.7-3.5c-0.3-0.2-0.5-0.2-0.8-0.2c-0.3,0-0.5,0.1-0.8,0.3     c-0.8,0.6-1.4,1.9-1.6,3.6c-0.1,0.5-0.1,1.1-0.1,1.7v0l0.5,0v0c0-0.5,0-0.9,0.1-1.3c0.2-1.4,0.7-2.5,1.3-2.9     c0.2-0.1,0.4-0.2,0.6-0.2c0.2,0,0.4,0,0.6,0.2c0.7,0.4,1.2,1.5,1.4,2.8c0.1,0.4,0.1,0.8,0.1,1.3v0l0.5,0v0     C1198.9,457.1,1198.9,456.5,1198.8,456.1z"/>
		</g>
		<path class="st499" d="M1202.1,455.2c-0.6-6.1-3.2-10.7-6.3-10.5c-3.1,0.2-5.6,5-6.1,11.2c-0.1,0.7-0.1,1.5-0.1,2.3    c0,0.5,0,0.9,0.1,1.4l0.8,0c0-0.5-0.1-0.9-0.1-1.4c0-3.6,0.7-6.9,2-9c0.9-1.6,2.1-2.5,3.3-2.6c1.3-0.1,2.4,0.8,3.4,2.2    c1.3,2,2.2,5.2,2.2,8.8c0,0.5,0,1,0,1.4l-0.6,0l0,0l1.5-0.1c0-0.5,0-0.9,0-1.4C1202.2,456.7,1202.1,455.9,1202.1,455.2z"/>
	</g>
	<g style="clip-path:url(#SVGID_1_);">
		<path class="st481" d="M1191.9,427.9c0,2.8-1.1,5-2.5,5c-1.4,0-2.5-2.3-2.5-5v-0.3c0-2.8,1.1-5,2.5-5c1.4,0,2.5,2.3,2.5,5V427.9z"/>
	</g>
	<g style="clip-path:url(#SVGID_1_);">
		<ellipse class="st481" cx="1189.4" cy="436" rx="2.5" ry="2.6"/>
	</g>
	<g style="clip-path:url(#SVGID_1_);">
		<path class="st525" d="M1187.5,421.7c0,0,0.5,0,1,0c0.6,0,1,1.4,1,3v10.4"/>
	</g>
	<path style="opacity:0.6;clip-path:url(#SVGID_1_);fill:#7AC9D0;" d="M1167.5,421c-1.4,3.2-4.4,10.4-6.1,14.6h12.3   c1.8-4.3,4.8-11.5,6.1-14.6C1179.8,421,1167.5,420.9,1167.5,421z"/>
</g>
<div xmlns="" id="divScriptsUsed" style="display: none"/><script xmlns="" id="globalVarsDetection" src="chrome-extension://cmkdbmfndkfgebldhnkbfhlneefdaaip/js/wrs_env.js"/></svg>