<?xml version="1.0" encoding="utf-8"?>
<!-- Generator: Adobe Illustrator 16.0.0, SVG Export Plug-In . SVG Version: 6.00 Build 0)  -->
<!DOCTYPE svg PUBLIC "-//W3C//DTD SVG 1.1//EN" "http://www.w3.org/Graphics/SVG/1.1/DTD/svg11.dtd">
<svg version="1.1" id="Layer_1" xmlns="http://www.w3.org/2000/svg" xmlns:xlink="http://www.w3.org/1999/xlink" x="0px" y="0px"
	 width="300px" height="300px" viewBox="0 0 300 300" enable-background="new 0 0 300 300" xml:space="preserve">
<g>
	<g>
		<path fill="none" stroke="#2488D8" stroke-width="4" stroke-miterlimit="10" d="M254.939,282.2c0,1.1-0.9,2-2,2H47.061
			c-1.1,0-2-0.9-2-2V15.216c0-1.1,0.9-2,2-2h144.773c1.1,0,2.65,0.622,3.445,1.382l58.215,55.685
			c0.795,0.76,1.445,2.282,1.445,3.382V282.2z"/>
	</g>
	<g>
		<path fill="#2488D8" d="M256.615,191.822v92.962c0,1.1-0.9,2-2,2H45.385c-1.1,0-2-0.9-2-2v-92.962"/>
	</g>
	<g>
		
			<text transform="matrix(1 0 0 1 81.6792 263.4355)" fill="#FFFFFF" font-family="'MyriadPro-Regular'" font-size="65.5366" letter-spacing="3">DOC</text>
	</g>
	<g>
		
			<text transform="matrix(1 0 0 1 78.4888 93.1367)" fill="#2488D8" font-family="'TimesNewRomanPSMT'" font-size="70.2847" letter-spacing="3">W</text>
		
			<line fill="none" stroke="#2488D8" stroke-width="3" stroke-miterlimit="10" x1="78.488" y1="116.084" x2="221.512" y2="116.084"/>
		
			<line fill="none" stroke="#2488D8" stroke-width="3" stroke-miterlimit="10" x1="78.488" y1="141.616" x2="221.512" y2="141.616"/>
		
			<line fill="none" stroke="#2488D8" stroke-width="3" stroke-miterlimit="10" x1="78.488" y1="167.147" x2="221.512" y2="167.147"/>
	</g>
</g>
</svg>
