<?xml version="1.0" encoding="utf-8"?>
<!-- Generator: Adobe Illustrator 16.0.0, SVG Export Plug-In . SVG Version: 6.00 Build 0)  -->
<!DOCTYPE svg PUBLIC "-//W3C//DTD SVG 1.1//EN" "http://www.w3.org/Graphics/SVG/1.1/DTD/svg11.dtd">
<svg version="1.1" id="Layer_1" xmlns="http://www.w3.org/2000/svg" xmlns:xlink="http://www.w3.org/1999/xlink" x="0px" y="0px"
	 width="300px" height="300px" viewBox="0 0 300 300" enable-background="new 0 0 300 300" xml:space="preserve">
<g>
	<g>
		<path fill="none" stroke="#2488D8" stroke-width="4" stroke-miterlimit="10" d="M254.939,282.2c0,1.1-0.9,2-2,2H47.061
			c-1.1,0-2-0.9-2-2V15.216c0-1.1,0.9-2,2-2h144.773c1.1,0,2.65,0.622,3.445,1.382l58.215,55.685
			c0.795,0.76,1.445,2.282,1.445,3.382V282.2z"/>
	</g>
	<g>
		<path fill="#8B559C" d="M256.971,191.822v92.962c0,1.1-0.9,2-2,2H45.029c-1.1,0-2-0.9-2-2v-92.962"/>
	</g>
	<g>
		
			<text transform="matrix(1 0 0 1 95.1509 263.4355)" fill="#FFFFFF" font-family="'MyriadPro-Regular'" font-size="65.5366" letter-spacing="3">KEY</text>
	</g>
</g>
<g>
	<g>
		<path fill="#2488D8" d="M150,104.086l4.674-54.99l0.122-1.316c-1.583-0.134-3.176-0.242-4.796-0.242
			c-31.232,0-56.549,25.316-56.549,56.548c0,31.232,25.316,56.549,56.549,56.549s56.549-25.316,56.549-56.549
			c0-3.56-0.368-7.035-1.001-10.413"/>
	</g>
	<path fill="#2488D8" d="M168.313,49.967v33.85l32.662-4.307C200.975,79.51,195.033,54.273,168.313,49.967z"/>
</g>
</svg>
