<?xml version="1.0" encoding="utf-8"?>
<!-- Generator: Adobe Illustrator 16.0.0, SVG Export Plug-In . SVG Version: 6.00 Build 0)  -->
<!DOCTYPE svg PUBLIC "-//W3C//DTD SVG 1.1//EN" "http://www.w3.org/Graphics/SVG/1.1/DTD/svg11.dtd">
<svg version="1.1" id="Layer_1" xmlns="http://www.w3.org/2000/svg" xmlns:xlink="http://www.w3.org/1999/xlink" x="0px" y="0px"
	 width="300px" height="300px" viewBox="0 0 300 300" enable-background="new 0 0 300 300" xml:space="preserve">
<g>
	<g>
		<path fill="none" stroke="#2488D8" stroke-width="4" stroke-miterlimit="10" d="M254.939,282.2c0,1.1-0.9,2-2,2H47.061
			c-1.1,0-2-0.9-2-2V15.216c0-1.1,0.9-2,2-2h144.773c1.1,0,2.65,0.622,3.445,1.382l58.215,55.685
			c0.795,0.76,1.445,2.282,1.445,3.382V282.2z"/>
	</g>
	<g>
		<path fill="#8B559C" d="M256.971,191.822v92.962c0,1.1-0.9,2-2,2H45.029c-1.1,0-2-0.9-2-2v-92.962"/>
	</g>
	<g>
		
			<text transform="matrix(1 0 0 1 60.1509 263.4355)" fill="#FFFFFF" font-family="'MyriadPro-Regular'" font-size="65.5366" letter-spacing="3">NMBR</text>
	</g>
</g>
<g>
	<rect x="85.484" y="73.138" fill="#2488D8" width="129.031" height="9.503"/>
	<rect x="86.005" y="147.124" fill="#2488D8" width="128.511" height="4.751"/>
	<rect x="209.764" y="73.138" fill="#2488D8" width="4.752" height="78.737"/>
	<rect x="85.484" y="73.138" fill="#2488D8" width="4.753" height="78.737"/>
	<rect x="125.097" y="77.888" fill="#2488D8" width="4.753" height="71.611"/>
	<rect x="154.145" y="77.888" fill="#2488D8" width="4.754" height="71.611"/>
	<rect x="183.195" y="77.888" fill="#2488D8" width="4.752" height="71.611"/>
	<rect x="88.104" y="101.709" fill="#2488D8" width="123.438" height="4.753"/>
	<rect x="88.104" y="125.477" fill="#2488D8" width="123.438" height="4.753"/>
</g>
</svg>
