<?xml version="1.0" encoding="utf-8"?>
<!-- Generator: Adobe Illustrator 16.0.0, SVG Export Plug-In . SVG Version: 6.00 Build 0)  -->
<!DOCTYPE svg PUBLIC "-//W3C//DTD SVG 1.1//EN" "http://www.w3.org/Graphics/SVG/1.1/DTD/svg11.dtd">
<svg version="1.1" id="Layer_1" xmlns="http://www.w3.org/2000/svg" xmlns:xlink="http://www.w3.org/1999/xlink" x="0px" y="0px"
	 width="400px" height="400px" viewBox="0 0 400 400" enable-background="new 0 0 400 400" xml:space="preserve">
<g>
	<g>
		<g>
			<path fill-rule="evenodd" clip-rule="evenodd" fill="#C25345" d="M313.506,22.21c-53.756-0.012-138.981,0.081-192.75-0.097
				L44.799,84.497c0.154,79.465,0.069,190.01,0.121,269.47c0,23.423,14.678,36.436,41.187,36.445
				c76.344,0.059,152.7,0.059,229.037,0c26.563-0.01,41.233-12.983,41.256-36.377c0.039-49.231,0.01-98.457,0.01-147.686
				c0-48.974,0.013-97.958,0-146.935C356.399,34.64,342.065,22.223,313.506,22.21z"/>
			<path fill-rule="evenodd" clip-rule="evenodd" fill="#C25345" d="M44.799,84.497c0.052-0.044,75.941-62.384,75.941-62.384v9.973
				c0.036-0.032,0.072-0.065,0.108-0.1c0,4.158,0.02,8.315,0.016,12.473c0,7.496,0.023,14.995-0.006,22.492
				c-0.01,2.499-0.013,4.998-0.053,7.495c-0.036,2.389,0.007,5.106-1.677,7.006c-1.351,1.519-3.447,2.304-5.396,2.672
				c-2.089,0.394-4.121,0.235-6.227,0.267c-2.276,0.034-4.556,0.043-6.835,0.052c-2.73,0.011-5.465,0.025-8.196,0.039
				c-3.009,0.017-6.014,0.028-9.02,0.033c-2.976,0.004-5.952,0.003-8.928,0.004c-2.937,0.002-5.87,0.005-8.807,0.005
				c-2.59,0.001-5.184-0.001-7.777-0.005c-2.138-0.003-4.277-0.008-6.416-0.01c-1.537-0.001-3.074-0.004-4.611-0.008
				c-0.638-0.002-1.279-0.003-1.917-0.005C44.962,84.497,44.825,84.476,44.799,84.497z"/>
		</g>
	</g>
	<g>
		<path fill-rule="evenodd" clip-rule="evenodd" fill="#DE5745" d="M313.506,8.814c-53.756-0.011-138.981,0.082-192.75-0.096
			L44.799,71.102c0.154,79.463,0.069,190.01,0.121,269.47c0,23.422,14.678,36.435,41.187,36.445c76.344,0.059,152.7,0.059,229.037,0
			c26.563-0.011,41.233-12.984,41.256-36.377c0.039-49.231,0.01-98.457,0.01-147.686c0-48.972,0.013-97.957,0-146.934
			C356.399,21.245,342.065,8.828,313.506,8.814z"/>
		<path fill-rule="evenodd" clip-rule="evenodd" fill="#B73127" d="M44.799,71.102c0.052-0.044,75.941-62.384,75.941-62.384v9.973
			c0.036-0.033,0.072-0.065,0.108-0.1c0,4.159,0.02,8.315,0.016,12.474c0,7.495,0.023,14.995-0.006,22.492
			c-0.01,2.499-0.013,4.997-0.053,7.494c-0.036,2.389,0.007,5.106-1.677,7.007c-1.351,1.519-3.447,2.304-5.396,2.672
			c-2.089,0.394-4.121,0.235-6.227,0.266c-2.276,0.035-4.556,0.044-6.835,0.053c-2.73,0.011-5.465,0.024-8.196,0.039
			c-3.009,0.017-6.014,0.028-9.02,0.033c-2.976,0.005-5.952,0.003-8.928,0.005c-2.937,0.001-5.87,0.005-8.807,0.005
			c-2.59,0.002-5.184-0.001-7.777-0.005c-2.138-0.003-4.277-0.008-6.416-0.01c-1.537-0.001-3.074-0.005-4.611-0.008
			c-0.638-0.001-1.279-0.003-1.917-0.005C44.962,71.102,44.825,71.08,44.799,71.102z"/>
	</g>
	<text transform="matrix(1 0 0 1 98.4873 233.1719)" fill="#FFFFFF" font-family="'OpenSans-Extrabold'" font-size="107.2267">PDF</text>
</g>
</svg>
