<?xml version="1.0" encoding="utf-8"?>
<!-- Generator: Adobe Illustrator 16.0.0, SVG Export Plug-In . SVG Version: 6.00 Build 0)  -->
<!DOCTYPE svg PUBLIC "-//W3C//DTD SVG 1.1//EN" "http://www.w3.org/Graphics/SVG/1.1/DTD/svg11.dtd">
<svg version="1.1" id="Layer_1" xmlns="http://www.w3.org/2000/svg" xmlns:xlink="http://www.w3.org/1999/xlink" x="0px" y="0px"
	 width="300px" height="300px" viewBox="0 0 300 300" enable-background="new 0 0 300 300" xml:space="preserve">
<g>
	<g>
		<path fill="none" stroke="#2488D8" stroke-width="4" stroke-miterlimit="10" d="M255.94,283.479c0,1.1-0.9,2-2,2H46.059
			c-1.1,0-2-0.9-2-2V13.91c0-1.1,0.9-2,2-2h146.193c1.1,0,2.65,0.622,3.445,1.382l58.798,56.241c0.795,0.76,1.445,2.282,1.445,3.382
			V283.479z"/>
	</g>
	<g>
		<path fill="#D1492B" d="M258.094,192.221v93.869c0,1.1-0.9,2-2,2H43.906c-1.1,0-2-0.9-2-2v-93.869"/>
	</g>
	<g>
		
			<text transform="matrix(1 0 0 1 89.2979 264.5195)" fill="#FFFFFF" font-family="'MyriadPro-Regular'" font-size="66.1622" letter-spacing="3">PDF</text>
	</g>
	<path fill="none" stroke="#2488D8" stroke-width="2" stroke-miterlimit="10" d="M138.819,43.296
		c-3.861,3.176-2.01,15.942-1.699,20.16c0.605,8.203,2.267,16.335,5.074,24.07c5.819,16.032,18.065,29.153,32.673,37.488
		c5.449,3.108,11.115,5.859,17.043,7.934c3.335,1.166,6.735,2.111,10.172,2.912c5.385,1.253,13.231,3.871,15.885-3.356
		c2.194-5.983-4.184-8.048-8.936-8.964c-18.785-3.624-115.992,8.894-126.866,41.517c0,0-4.613,16.148,12.192,6.59
		c16.806-9.555,53.417-86,55.707-109.396c0.53-5.421,0.495-13.517-3.632-17.621c-1.88-1.871-4.994-3.189-7.419-1.481
		C138.948,43.194,138.882,43.244,138.819,43.296z"/>
</g>
</svg>
