<svg xmlns="http://www.w3.org/2000/svg" width="44.283" height="54.589" viewBox="0 0 44.283 54.589">
  <g id="Group_2613" data-name="Group 2613" transform="translate(-6662.424 -3940)">
    <g id="Group_2597" data-name="Group 2597" transform="translate(6664.524 3942.1)" opacity="0.15">
      <path id="Path_3552" data-name="Path 3552" d="M1050.8,330.111h-19.485a3.067,3.067,0,0,0-3.058,3.058v36.954a3.067,3.067,0,0,0,3.058,3.058h27.726a3.067,3.067,0,0,0,3.058-3.058V341.534Z" transform="translate(-1020.92 -330.111)" fill="none" stroke="#000" stroke-miterlimit="10" stroke-width="2"/>
      <path id="Path_3553" data-name="Path 3553" d="M1089.843,330.111v8.35a3.068,3.068,0,0,0,3.058,3.058h8.212Z" transform="translate(-1059.93 -330.111)"/>
      <rect id="Rectangle_2924" data-name="Rectangle 2924" width="27.728" height="15.313" rx="7.657" transform="translate(0 10.612)" stroke="#000" stroke-miterlimit="10" stroke-width="2"/>
      <text id="PSD" transform="translate(4.826 20.272)" font-size="8" font-family="SegoeUI, Segoe UI"><tspan x="0" y="0">PSD</tspan></text>
      <path id="Path_3554" data-name="Path 3554" d="M1061.983,419.53V410h-9.53v9.53h-4.946l9.73,12.083,9.73-12.083Z" transform="translate(-1033.112 -380.717)" stroke="#000" stroke-miterlimit="10" stroke-width="2"/>
    </g>
    <g id="Group_2599" data-name="Group 2599" transform="translate(6663.424 3941)">
      <g id="Group_2598" data-name="Group 2598">
        <path id="Path_3555" data-name="Path 3555" d="M1047.8,327.111h-19.485a3.067,3.067,0,0,0-3.058,3.058v36.954a3.067,3.067,0,0,0,3.058,3.058h27.726a3.067,3.067,0,0,0,3.058-3.058V338.534Z" transform="translate(-1017.92 -327.111)" fill="none" stroke="#6d55ae" stroke-miterlimit="10" stroke-width="2"/>
        <path id="Path_3556" data-name="Path 3556" d="M1086.843,327.111v8.351a3.067,3.067,0,0,0,3.058,3.058h8.212Z" transform="translate(-1056.93 -327.111)" fill="#6d55ae"/>
        <rect id="Rectangle_2925" data-name="Rectangle 2925" width="27.728" height="15.313" rx="7.657" transform="translate(0 10.612)" fill="#6d55ae" stroke="#fff" stroke-miterlimit="10" stroke-width="2"/>
        <text id="PNG" transform="translate(5.576 21)" fill="#fff" font-size="9" font-family="SegoeUI, Segoe UI"><tspan x="0" y="0">PNG</tspan></text>
        <path id="Path_3557" data-name="Path 3557" d="M1058.983,416.53V407h-9.53v9.53h-4.946l9.73,12.083,9.73-12.083Z" transform="translate(-1030.112 -377.717)" fill="#6d55ae" stroke="#fff" stroke-miterlimit="10" stroke-width="2"/>
      </g>
    </g>
  </g>
</svg>
