<?xml version="1.0" encoding="utf-8"?>
<!-- Generator: Adobe Illustrator 16.0.0, SVG Export Plug-In . SVG Version: 6.00 Build 0)  -->
<!DOCTYPE svg PUBLIC "-//W3C//DTD SVG 1.1//EN" "http://www.w3.org/Graphics/SVG/1.1/DTD/svg11.dtd">
<svg version="1.1" id="Layer_1" xmlns="http://www.w3.org/2000/svg" xmlns:xlink="http://www.w3.org/1999/xlink" x="0px" y="0px"
	 width="300px" height="300px" viewBox="0 0 300 300" enable-background="new 0 0 300 300" xml:space="preserve">
<g>
	<g>
		<path fill="none" stroke="#2488D8" stroke-width="4" stroke-miterlimit="10" d="M255.94,283.479c0,1.1-0.9,2-2,2H46.06
			c-1.1,0-2-0.9-2-2V13.91c0-1.1,0.9-2,2-2h146.192c1.1,0,2.65,0.622,3.445,1.382l58.798,56.241c0.795,0.76,1.445,2.282,1.445,3.382
			V283.479z"/>
	</g>
	<g>
		<path fill="#E38D25" d="M258.094,192.221v93.869c0,1.1-0.9,2-2,2H43.906c-1.1,0-2-0.9-2-2v-93.869"/>
	</g>
	<g>
		
			<text transform="matrix(1 0 0 1 93.3984 264.5195)" fill="#FFFFFF" font-family="'MyriadPro-Regular'" font-size="66.1622" letter-spacing="3">PPT</text>
	</g>
</g>
<g>
	<g>
		<path fill="#2488D8" d="M150.002,103.252l4.27-50.27l0.115-1.203c-1.449-0.123-2.906-0.221-4.385-0.221
			c-28.551,0-51.697,23.143-51.697,51.693s23.146,51.693,51.697,51.693c28.547,0,51.693-23.143,51.693-51.693
			c0-3.254-0.338-6.431-0.916-9.519"/>
	</g>
	<path fill="#2488D8" d="M166.74,53.779v30.943l29.857-3.937C196.598,80.786,191.166,57.716,166.74,53.779z"/>
</g>
</svg>
