<?xml version="1.0" encoding="utf-8"?>
<!-- Generator: Adobe Illustrator 16.0.0, SVG Export Plug-In . SVG Version: 6.00 Build 0)  -->
<!DOCTYPE svg PUBLIC "-//W3C//DTD SVG 1.1//EN" "http://www.w3.org/Graphics/SVG/1.1/DTD/svg11.dtd">
<svg version="1.1" id="Layer_1" xmlns="http://www.w3.org/2000/svg" xmlns:xlink="http://www.w3.org/1999/xlink" x="0px" y="0px"
	 width="300px" height="300px" viewBox="0 0 300 300" enable-background="new 0 0 300 300" xml:space="preserve">
<g>
	<rect x="85.154" y="76.33" fill="#2488D8" width="127.692" height="9.405"/>
	<rect x="85.669" y="149.549" fill="#2488D8" width="127.177" height="4.702"/>
	<rect x="208.145" y="76.33" fill="#2488D8" width="4.701" height="77.921"/>
	<rect x="85.154" y="76.33" fill="#2488D8" width="4.701" height="77.921"/>
	<rect x="124.355" y="81.03" fill="#2488D8" width="4.701" height="70.87"/>
	<rect x="153.104" y="81.03" fill="#2488D8" width="4.701" height="70.87"/>
	<rect x="181.852" y="81.03" fill="#2488D8" width="4.701" height="70.87"/>
	<rect x="87.747" y="104.605" fill="#2488D8" width="122.159" height="4.704"/>
	<rect x="87.747" y="128.126" fill="#2488D8" width="122.159" height="4.704"/>
</g>
<g>
	<g>
		<path fill="none" stroke="#2488D8" stroke-width="4" stroke-miterlimit="10" d="M255.94,283.479c0,1.1-0.9,2-2,2H46.059
			c-1.1,0-2-0.9-2-2V13.91c0-1.1,0.9-2,2-2h146.193c1.1,0,2.65,0.622,3.445,1.382l58.798,56.241c0.795,0.76,1.445,2.282,1.445,3.382
			V283.479z"/>
	</g>
	<g>
		<path fill="#2E9A47" d="M258.094,192.221v93.869c0,1.1-0.9,2-2,2H43.906c-1.1,0-2-0.9-2-2v-93.869"/>
	</g>
	<g>
		
			<text transform="matrix(1 0 0 1 96.2979 264.5195)" fill="#FFFFFF" font-family="'MyriadPro-Regular'" font-size="66.1622" letter-spacing="3">XLS</text>
	</g>
</g>
</svg>
