<svg xmlns="http://www.w3.org/2000/svg" xmlns:xlink="http://www.w3.org/1999/xlink" width="65" height="65" viewBox="0 0 65 65">
  <defs>
    <clipPath id="clip-path">
      <path id="Shape" d="M3.375,19A3.385,3.385,0,0,1,0,15.607V3.393A3.385,3.385,0,0,1,3.375,0H23.625A3.384,3.384,0,0,1,27,3.393V15.607A3.384,3.384,0,0,1,23.625,19Z"/>
    </clipPath>
  </defs>
  <g id="Group_2526" data-name="Group 2526" transform="translate(330 391)">
    <circle id="Oval" cx="32.5" cy="32.5" r="32.5" transform="translate(-330 -391)" fill="#3ed3a3"/>
    <g id="Icon_Line_Menu_Notifications" data-name="Icon / Line / Menu / Notifications" transform="translate(-311 -368)">
      <g id="Group_45" data-name="Group 45">
        <path id="Shape-2" data-name="Shape" d="M3.375,19A3.385,3.385,0,0,1,0,15.607V3.393A3.385,3.385,0,0,1,3.375,0H23.625A3.384,3.384,0,0,1,27,3.393V15.607A3.384,3.384,0,0,1,23.625,19Z"/>
        <g id="Mask_Group_45" data-name="Mask Group 45" clip-path="url(#clip-path)">
          <g id="_Icon_Color" data-name="↳🎨 Icon Color" transform="translate(-3 -7)">
            <rect id="Black_Black-800" data-name="Black / Black-800" width="32" height="32" fill="#fff"/>
          </g>
        </g>
      </g>
    </g>
  </g>
</svg>
